# Blender v3.0.1 OBJ File: 'icebreaking.blend'
# www.blender.org
mtllib icebreaking.mtl
o Cube
v -0.325115 -0.283468 4.392932
v 0.576800 0.295479 4.208409
v 2.534032 0.294086 5.193845
v -0.154661 -0.283468 4.222477
v -2.663263 -0.645956 3.347062
v 1.752676 0.295479 3.032534
v -1.980174 -0.645956 2.663972
v 2.738111 0.294086 4.989765
v -0.325115 -0.042409 4.392932
v 0.576800 0.151399 4.208409
v 2.534032 0.149493 5.193845
v -0.154661 -0.042409 4.222477
v -2.663263 0.320079 3.347062
v 1.752676 0.151399 3.032534
v -1.980174 0.320079 2.663972
v 2.738111 0.149493 4.989765
v -1.077322 0.238908 3.681616
v 1.312467 0.295479 4.944077
v -1.645620 -0.564785 4.249913
v 2.488343 0.295479 3.768201
v -1.645620 0.238908 4.249913
v 2.488343 0.151399 3.768201
v -1.077322 -0.564785 3.681616
v 1.312467 0.151399 4.944077
v 1.831511 0.312698 5.160699
v -1.082602 0.164227 4.540248
v 2.704966 0.312698 4.287244
v -0.619920 -0.490103 4.077568
v 2.704966 0.168854 4.287244
v -0.619920 0.164227 4.077568
v 1.831511 0.168854 5.160699
v -1.082602 -0.490103 4.540248
v 1.164738 0.458881 3.620471
v -0.688664 0.062144 4.529938
v 2.636072 0.295716 5.091805
v -0.370350 -0.388021 4.211624
v 1.164738 0.314287 3.620471
v -0.370350 0.062144 4.211624
v -0.688664 -0.388021 4.529938
v 2.636072 0.151122 5.091805
v 1.900405 0.314287 4.356138
v -1.756626 0.238908 3.002312
v 1.900405 0.458881 4.356138
v -2.324924 -0.564785 3.570609
v 2.268238 0.281167 4.723971
v -2.324924 0.238908 3.570609
v 2.268238 0.424132 4.723971
v -1.756626 -0.564785 3.002312
v -1.750414 0.320079 2.893732
v 0.870769 0.408812 3.914441
v -2.433504 -0.645956 3.576821
v 2.585052 0.150690 5.142825
v -2.433504 0.320079 3.576821
v 1.606436 0.266786 4.650107
v 2.049875 0.245130 4.942335
v -1.750414 -0.645956 2.893732
v 2.585052 0.295283 5.142825
v 0.975312 0.145815 0.998985
v -2.067589 -0.033007 4.279782
v 0.870769 0.266786 3.914441
v 1.283506 0.145815 1.534084
v 1.606436 0.408812 4.650107
v 2.049875 0.387784 4.942335
v -1.883838 -0.033007 4.463532
v 2.687091 0.295283 5.040785
v 0.975312 -0.471692 0.998985
v -2.067589 -0.292870 4.279782
v 1.458707 0.266786 3.326503
v 1.283506 -0.471692 1.534084
v 2.194374 0.408812 4.062170
v 2.486602 0.387784 4.505608
v -1.883838 -0.292870 4.463532
v 1.458707 0.408812 3.326503
v -0.536078 -0.003238 2.706170
v -0.310227 -0.003238 2.932021
v 2.687091 0.150690 5.040785
v -0.310227 -0.322639 2.932021
v 2.194374 0.266786 4.062170
v 2.486602 0.245130 4.505608
v -0.536078 -0.322639 2.706170
v 1.245630 0.423449 3.529872
v 1.245630 0.172078 3.529872
v 1.074139 0.172078 3.701364
v 1.074139 0.423449 3.701364
v 1.706176 0.365212 4.161910
v -0.730348 0.418849 1.490808
v -0.730348 0.075008 1.490808
v -0.964925 0.075008 1.725386
v -0.964925 0.418849 1.725386
v -1.660920 0.378575 1.533933
v -0.728583 0.360108 1.929002
v -0.921801 0.378575 0.794814
v -0.526732 0.360108 1.727150
v -1.660920 0.129841 1.533933
v -0.728583 0.148308 1.929002
v -0.921801 0.129841 0.794814
v -0.526732 0.148308 1.727150
vt 0.195622 0.986532
vt 0.195622 0.846598
vt 0.242235 0.846598
vt 0.242235 0.986532
vt 0.647096 0.663510
vt 0.787025 0.663510
vt 0.787025 0.803445
vt 0.647096 0.803445
vt 0.120792 0.342971
vt 0.056161 0.351628
vt 0.103686 0.320630
vt 0.138295 0.315995
vt 0.254522 0.611692
vt 0.394457 0.611692
vt 0.394457 0.658592
vt 0.254522 0.658592
vt 0.301578 0.828194
vt 0.301578 0.968128
vt 0.254522 0.968123
vt 0.254522 0.828190
vt 0.453613 0.848001
vt 0.453613 0.882867
vt 0.418695 0.882867
vt 0.418695 0.848001
vt 0.114436 0.875283
vt 0.020508 0.862593
vt 0.004547 0.772505
vt 0.119916 0.788092
vt 0.277098 0.375025
vt 0.371881 0.375025
vt 0.382699 0.461590
vt 0.266280 0.461590
vt 0.138295 0.610087
vt 0.022908 0.625543
vt 0.004547 0.488115
vt 0.119934 0.472659
vt 0.515316 0.706194
vt 0.610098 0.706194
vt 0.620916 0.796628
vt 0.504498 0.796628
vt 0.530103 0.661540
vt 0.595311 0.661540
vt 0.291885 0.336868
vt 0.357094 0.336868
vt 0.120885 0.915457
vt 0.056265 0.906726
vt 0.020532 0.397176
vt 0.114475 0.384593
vt 0.138556 0.940907
vt 0.103952 0.936232
vt 0.307030 0.315516
vt 0.341949 0.315516
vt 0.468758 0.935337
vt 0.403550 0.935337
vt 0.786818 0.952472
vt 0.647096 0.952472
vt 0.659413 0.940715
vt 0.775655 0.940715
vt 0.023186 0.634636
vt 0.138556 0.650224
vt 0.382699 0.600253
vt 0.266280 0.600253
vt 0.620916 0.934444
vt 0.504498 0.934444
vt 0.357566 0.828206
vt 0.357566 0.968139
vt 0.310671 0.968123
vt 0.310671 0.828190
vt 0.775655 0.824296
vt 0.659413 0.824296
vt 0.647096 0.812538
vt 0.786818 0.812538
vt 0.872823 0.334909
vt 0.881158 0.652897
vt 0.843685 0.654417
vt 0.826764 0.336777
vt 0.670897 0.311615
vt 0.666585 0.629421
vt 0.628943 0.629421
vt 0.624631 0.311615
vt 0.733348 0.322235
vt 0.749418 0.004547
vt 0.787025 0.005930
vt 0.779571 0.323936
vt 0.572356 0.334372
vt 0.568043 0.652446
vt 0.530401 0.652446
vt 0.526089 0.334372
vt 0.796119 0.913464
vt 0.796119 0.824015
vt 0.884147 0.824015
vt 0.884147 0.913464
vt 0.927531 0.594615
vt 0.927531 0.632257
vt 0.890252 0.632257
vt 0.890252 0.594615
vt 0.593946 0.004547
vt 0.504498 0.004547
vt 0.701582 0.627786
vt 0.787025 0.654186
vt 0.692488 0.004547
vt 0.603040 0.004547
vt 0.881158 0.004547
vt 0.796119 0.031256
vt 0.080203 0.230672
vt 0.114536 0.306883
vt 0.104085 0.306901
vt 0.035513 0.231617
vt 0.147388 0.396881
vt 0.150012 0.316013
vt 0.170957 0.315995
vt 0.168225 0.396862
vt 0.419750 0.080192
vt 0.385415 0.004552
vt 0.395866 0.004547
vt 0.464439 0.079937
vt 0.483287 0.543701
vt 0.486017 0.627832
vt 0.465072 0.627813
vt 0.462450 0.543683
vt 0.948159 0.844167
vt 0.968732 0.844167
vt 0.985446 0.904386
vt 0.964575 0.904386
vt 0.462624 0.718614
vt 0.483569 0.718614
vt 0.483395 0.729050
vt 0.462450 0.729050
vt 0.486017 0.315534
vt 0.485885 0.464784
vt 0.465014 0.464766
vt 0.465146 0.315516
vt 0.435250 0.306261
vt 0.435250 0.155595
vt 0.495405 0.155210
vt 0.495405 0.305877
vt 0.150086 0.624743
vt 0.149952 0.474574
vt 0.170822 0.474555
vt 0.170957 0.624724
vt 0.064703 0.005187
vt 0.064703 0.155340
vt 0.004547 0.156764
vt 0.004547 0.006611
vt 0.185143 0.155300
vt 0.169667 0.230642
vt 0.124914 0.230207
vt 0.124894 0.154700
vt 0.314809 0.155605
vt 0.330285 0.080200
vt 0.375038 0.080314
vt 0.375057 0.155756
vt 0.185143 0.005147
vt 0.124894 0.004547
vt 0.314809 0.306272
vt 0.375057 0.306422
vt 0.462624 0.697742
vt 0.483569 0.697742
vt 0.483631 0.708178
vt 0.462686 0.708178
vt 0.948159 0.723729
vt 0.968732 0.723729
vt 0.961851 0.783948
vt 0.940906 0.783948
vt 0.364511 0.004554
vt 0.374963 0.004554
vt 0.135440 0.306876
vt 0.124988 0.306874
vt 0.214443 0.231557
vt 0.145892 0.306887
vt 0.245429 0.006530
vt 0.245429 0.156683
vt 0.285508 0.079953
vt 0.354059 0.004550
vt 0.964575 0.663510
vt 0.985446 0.663510
vt 0.462450 0.687306
vt 0.483395 0.687306
vt 0.254522 0.305898
vt 0.254523 0.155232
vt 0.453357 0.725928
vt 0.444738 0.838908
vt 0.416945 0.725869
vt 0.896806 0.115795
vt 0.914492 0.004547
vt 0.931937 0.115795
vt 0.209017 0.429305
vt 0.245429 0.429246
vt 0.245429 0.837423
vt 0.195622 0.837504
vt 0.236808 0.315995
vt 0.954002 0.116769
vt 0.971572 0.004547
vt 0.989132 0.116769
vt 0.938305 0.535714
vt 0.938305 0.585521
vt 0.890252 0.585521
vt 0.890252 0.535714
vt 0.938306 0.526621
vt 0.890252 0.526621
vt 0.403550 0.315516
vt 0.453357 0.315597
vt 0.995453 0.526457
vt 0.947399 0.526457
vt 0.931812 0.814922
vt 0.796119 0.759856
vt 0.796119 0.718506
vt 0.931812 0.663510
vt 0.929271 0.824015
vt 0.926596 0.964134
vt 0.895916 0.964134
vt 0.893240 0.824015
vt 0.254522 0.667686
vt 0.390390 0.722739
vt 0.390390 0.764089
vt 0.254522 0.819097
vt 0.183679 0.795137
vt 0.181004 0.937415
vt 0.150324 0.937415
vt 0.147649 0.795137
vt 0.147649 0.634636
vt 0.183679 0.634636
vt 0.183680 0.786044
vt 0.147649 0.786044
vt 0.462450 0.636925
vt 0.493131 0.636925
vt 0.493131 0.678213
vt 0.462450 0.678213
vn -0.7071 0.0000 0.7071
vn -0.7071 0.0000 -0.7071
vn 0.3865 0.8374 0.3865
vn 0.7071 0.0000 -0.7071
vn 0.0000 -1.0000 0.0000
vn 0.7071 0.0000 0.7071
vn 0.0869 -0.9924 0.0869
vn 0.6545 0.0000 -0.7561
vn 0.0000 1.0000 0.0000
vn -0.4583 0.0000 0.8888
vn 0.0262 0.0000 0.9997
vn 0.4732 0.0000 -0.8810
vn 0.2490 -0.9359 0.2490
vn 0.0869 0.9924 0.0869
vn 0.3865 -0.8374 0.3865
vn 0.0503 0.0000 -0.9987
vn 0.3526 0.0000 0.9358
vn 0.2490 0.9359 0.2490
vn 0.5277 0.6656 0.5277
vn 0.5277 -0.6656 0.5277
vn 0.9984 0.0000 0.0571
vn 0.0571 0.0000 0.9984
vn -0.0096 0.9999 0.0096
vn 0.6975 0.0000 0.7166
vn -0.0096 -0.9999 0.0096
vn -0.7166 -0.0000 -0.6975
vn 0.8665 0.0000 -0.4991
vn -0.7487 -0.0000 -0.6629
vn -0.0563 -0.9976 0.0395
vn 0.6594 0.0000 0.7518
vn -0.0563 0.9976 0.0395
vn 0.2992 0.9537 0.0291
vn 0.9989 0.0000 -0.0471
vn -0.0302 -0.9522 -0.3040
vn -0.0471 0.0000 0.9989
vn 0.1891 -0.9636 -0.1891
vn 0.1860 0.9648 -0.1860
vn -0.3852 0.0000 0.9229
vn 0.1219 -0.9635 -0.2385
vn 0.9229 0.0000 -0.3852
vn 0.2346 0.9646 -0.1202
vn -0.0374 0.9908 0.1297
vn -0.1260 -0.9914 0.0356
vn -0.0845 0.9928 0.0845
vn -0.0803 -0.9935 0.0803
vn -0.2283 -0.9687 -0.0971
vn 0.0944 0.9694 0.2268
vn 0.0291 0.9537 0.2992
vn -0.1860 0.9648 0.1860
vn -0.1202 0.9646 0.2346
vn 0.0356 -0.9914 -0.1260
vn 0.0803 -0.9935 -0.0803
vn -0.0971 -0.9687 -0.2283
vn -0.3040 -0.9522 -0.0302
vn -0.1891 -0.9636 0.1891
vn -0.2385 -0.9635 0.1219
vn 0.1297 0.9908 -0.0374
vn 0.0845 0.9928 -0.0845
vn 0.2268 0.9694 0.0944
vn 0.8082 0.0000 -0.5889
vn 0.1715 -0.9701 0.1715
vn -0.6959 0.0000 0.7181
vn -0.5889 0.0000 0.8082
vn 0.0532 0.9972 0.0532
vn 0.0242 -0.9994 0.0242
vn 0.7181 0.0000 -0.6959
vn -0.0011 1.0000 -0.0011
vn 0.0139 0.9998 0.0139
vn 0.9207 0.0000 -0.3902
vn 0.0139 -0.9998 0.0139
vn -0.3902 0.0000 0.9207
usemtl Material
s off
f 51/1/1 53/2/1 13/3/1 5/4/1
f 7/5/2 5/6/2 13/7/2 15/8/2
f 38/9/3 34/10/3 9/11/3 12/12/3
f 49/13/4 56/14/4 7/15/4 15/16/4
f 56/17/5 51/18/5 5/19/5 7/20/5
f 12/21/6 9/22/6 1/23/6 4/24/6
f 28/25/7 32/26/7 19/27/7 23/28/7
f 30/29/8 28/30/8 23/31/8 17/32/8
f 42/33/9 46/34/9 21/35/9 17/36/9
f 32/37/10 26/38/10 21/39/10 19/40/10
f 39/41/11 34/42/11 26/38/11 32/37/11
f 38/43/12 36/44/12 28/30/12 30/29/12
f 36/45/13 39/46/13 32/26/13 28/25/13
f 17/36/14 21/35/14 26/47/14 30/48/14
f 4/49/15 1/50/15 39/46/15 36/45/15
f 12/51/16 4/52/16 36/44/16 38/43/16
f 1/23/17 9/22/17 34/53/17 39/54/17
f 30/48/18 26/47/18 34/10/18 38/9/18
f 49/55/19 53/56/19 46/57/19 42/58/19
f 23/28/5 19/27/5 44/59/5 48/60/5
f 17/32/4 23/31/4 48/61/4 42/62/4
f 19/40/1 21/39/1 46/63/1 44/64/1
f 15/65/9 13/66/9 53/67/9 49/68/9
f 48/69/20 44/70/20 51/71/20 56/72/20
f 42/62/21 48/61/21 56/14/21 49/13/21
f 44/70/22 46/57/22 53/56/22 51/71/22
f 74/73/23 59/74/23 64/75/23 75/76/23
f 75/77/24 64/78/24 72/79/24 77/80/24
f 77/81/25 72/82/25 67/83/25 80/84/25
f 80/85/26 67/86/26 59/87/26 74/88/26
f 61/89/27 69/90/27 66/91/27 58/92/27
f 72/93/1 64/94/1 59/95/1 67/96/1
f 66/97/28 80/85/28 74/88/28 58/98/28
f 69/99/29 77/81/29 80/84/29 66/100/29
f 61/101/30 75/77/30 77/80/30 69/102/30
f 58/103/31 74/73/31 75/76/31 61/104/31
f 71/105/32 65/106/32 8/107/32 27/108/32
f 27/109/33 8/110/33 16/111/33 29/112/33
f 55/113/34 52/114/34 11/115/34 31/116/34
f 31/117/35 11/118/35 3/119/35 25/120/35
f 50/121/2 60/122/2 10/123/2 2/124/2
f 52/125/6 57/126/6 3/127/6 11/128/6
f 10/129/1 24/130/1 18/131/1 2/132/1
f 60/133/36 54/134/36 24/135/36 10/136/36
f 6/137/4 20/138/4 22/139/4 14/140/4
f 73/141/37 70/142/37 20/143/37 6/144/37
f 24/130/38 31/117/38 25/120/38 18/131/38
f 54/134/39 55/113/39 31/116/39 24/135/39
f 20/138/40 27/109/40 29/112/40 22/139/40
f 70/142/41 71/105/41 27/108/41 20/143/41
f 62/145/42 63/146/42 47/147/42 43/148/42
f 78/149/43 79/150/43 45/151/43 41/152/43
f 50/153/44 62/145/44 43/148/44 33/154/44
f 68/155/45 78/149/45 41/152/45 37/156/45
f 76/157/6 65/158/6 35/159/6 40/160/6
f 73/161/2 68/162/2 37/163/2 33/164/2
f 79/150/46 76/165/46 40/166/46 45/151/46
f 63/146/47 57/167/47 35/168/47 47/147/47
f 25/169/48 3/170/48 57/167/48 63/146/48
f 2/171/49 18/172/49 62/145/49 50/153/49
f 18/172/50 25/169/50 63/146/50 62/145/50
f 41/152/51 45/151/51 55/113/51 54/134/51
f 37/156/52 41/152/52 54/134/52 60/133/52
f 40/160/6 35/159/6 57/126/6 52/125/6
f 33/164/2 37/163/2 60/122/2 50/121/2
f 45/151/53 40/166/53 52/114/53 55/113/53
f 29/173/54 16/174/54 76/165/54 79/150/54
f 6/175/2 14/176/2 68/162/2 73/161/2
f 16/177/6 8/178/6 65/158/6 76/157/6
f 14/179/55 22/180/55 78/149/55 68/155/55
f 22/180/56 29/173/56 79/150/56 78/149/56
f 43/148/57 47/147/57 71/105/57 70/142/57
f 33/154/58 43/148/58 70/142/58 73/141/58
f 47/147/59 35/168/59 65/106/59 71/105/59
f 81/181/60 85/182/60 82/183/60
f 82/184/61 85/185/61 83/186/61
f 83/187/62 84/188/62 89/189/62 88/190/62
f 83/187/63 85/191/63 84/188/63
f 84/192/64 85/193/64 81/194/64
f 86/195/2 87/196/2 88/197/2 89/198/2
f 82/184/65 83/186/65 88/199/65 87/200/65
f 81/181/66 82/183/66 87/201/66 86/202/66
f 84/192/67 81/194/67 86/203/67 89/204/67
f 90/205/68 91/206/68 93/207/68 92/208/68
f 92/209/69 93/210/69 97/211/69 96/212/69
f 96/213/70 97/214/70 95/215/70 94/216/70
f 94/217/71 95/218/71 91/219/71 90/220/71
f 92/221/2 96/222/2 94/223/2 90/224/2
f 97/225/6 93/226/6 91/227/6 95/228/6
