# Blender v3.0.1 OBJ File: 'stem.blend'
# www.blender.org
mtllib stem.mtl
o Cylinder_Cylinder.003
v 0.499251 -0.000000 0.011540
v 0.196790 0.000000 2.961997
v 0.410089 -0.274414 0.011540
v 0.165392 -0.096632 2.961997
v 0.176658 -0.444011 0.011540
v 0.083193 -0.156353 2.961997
v -0.111878 -0.444011 0.011540
v -0.018412 -0.156353 2.961997
v -0.345308 -0.274414 0.011540
v -0.100612 -0.096632 2.961997
v -0.434470 0.000000 0.011540
v -0.132009 0.000000 2.961997
v -0.345308 0.274414 0.011540
v -0.100612 0.096632 2.961997
v -0.111878 0.444011 0.011540
v -0.018412 0.156353 2.961997
v 0.176658 0.444011 0.011540
v 0.083193 0.156353 2.961997
v 0.410089 0.274414 0.011540
v 0.165392 0.096632 2.961997
v 0.297450 0.000000 1.000614
v 0.218639 0.000000 1.984100
v 0.183069 -0.109474 1.984100
v 0.246828 -0.155798 1.000614
v 0.089944 -0.177133 1.984100
v 0.114298 -0.252086 1.000614
v -0.025163 -0.177133 1.984100
v -0.049517 -0.252086 1.000614
v -0.118288 -0.109474 1.984100
v -0.182047 -0.155798 1.000614
v -0.153858 0.000000 1.984100
v -0.232669 0.000000 1.000614
v -0.118288 0.109474 1.984100
v -0.182047 0.155798 1.000614
v -0.025163 0.177133 1.984100
v -0.049517 0.252086 1.000614
v 0.089944 0.177133 1.984100
v 0.114298 0.252086 1.000614
v 0.183069 0.109474 1.984100
v 0.246828 0.155798 1.000614
vt 1.000000 0.665166
vt 1.000000 0.991897
vt 0.900000 0.991897
vt 0.900000 0.665166
vt 0.800000 0.991897
vt 0.800000 0.665166
vt 0.700000 0.991897
vt 0.700000 0.665166
vt 0.600000 0.991897
vt 0.600000 0.665166
vt 0.500000 0.991897
vt 0.500000 0.665166
vt 0.400000 0.991897
vt 0.400000 0.665166
vt 0.300000 0.991897
vt 0.300000 0.665166
vt 0.200000 0.991897
vt 0.200000 0.665166
vt 0.391068 0.444164
vt 0.250000 0.490000
vt 0.108932 0.444164
vt 0.021746 0.324164
vt 0.021746 0.175836
vt 0.108932 0.055836
vt 0.250000 0.010000
vt 0.391068 0.055836
vt 0.478254 0.175836
vt 0.478254 0.324164
vt 0.100000 0.991897
vt 0.100000 0.665166
vt -0.000000 0.991897
vt -0.000000 0.665166
vt 0.750000 0.490000
vt 0.891068 0.444164
vt 0.978254 0.324164
vt 0.978254 0.175836
vt 0.891068 0.055836
vt 0.750000 0.010000
vt 0.608932 0.055836
vt 0.521746 0.175836
vt 0.521746 0.324164
vt 0.608932 0.444164
vt 0.100000 0.006103
vt 0.100000 0.336568
vt -0.000000 0.336568
vt -0.000000 0.006103
vt 0.200000 0.006103
vt 0.200000 0.336568
vt 0.300000 0.006103
vt 0.300000 0.336568
vt 0.400000 0.006103
vt 0.400000 0.336568
vt 0.500000 0.006103
vt 0.500000 0.336568
vt 0.600000 0.006103
vt 0.600000 0.336568
vt 0.700000 0.006103
vt 0.700000 0.336568
vt 0.800000 0.006103
vt 0.800000 0.336568
vt 0.900000 0.006103
vt 0.900000 0.336568
vt 1.000000 0.006103
vt 1.000000 0.336568
vn 0.9508 -0.3089 0.0212
vn 0.5877 -0.8088 0.0212
vn -0.0000 -0.9998 0.0212
vn -0.5877 -0.8088 0.0212
vn -0.9508 -0.3089 0.0212
vn -0.9508 0.3089 0.0212
vn -0.5877 0.8088 0.0212
vn 0.0000 0.9998 0.0212
vn 0.0000 0.0000 1.0000
vn 0.5877 0.8088 0.0212
vn 0.9508 0.3089 0.0212
vn 0.0000 0.0000 -1.0000
vn 0.9336 0.3034 0.1905
vn 0.9483 0.3081 0.0760
vn 0.5770 0.7942 0.1905
vn 0.5861 0.8067 0.0760
vn 0.0000 0.9817 0.1905
vn 0.0000 0.9971 0.0760
vn -0.5770 0.7942 0.1905
vn -0.5861 0.8067 0.0760
vn -0.9336 0.3034 0.1905
vn -0.9483 0.3081 0.0760
vn -0.9336 -0.3034 0.1905
vn -0.9483 -0.3081 0.0760
vn -0.5770 -0.7942 0.1905
vn -0.5861 -0.8067 0.0760
vn -0.0000 -0.9817 0.1905
vn -0.0000 -0.9971 0.0760
vn 0.5770 -0.7942 0.1905
vn 0.5861 -0.8067 0.0760
vn 0.9336 -0.3034 0.1905
vn 0.9483 -0.3081 0.0760
usemtl None
s off
f 22/1/1 2/2/1 4/3/1 23/4/1
f 23/4/2 4/3/2 6/5/2 25/6/2
f 25/6/3 6/5/3 8/7/3 27/8/3
f 27/8/4 8/7/4 10/9/4 29/10/4
f 29/10/5 10/9/5 12/11/5 31/12/5
f 31/12/6 12/11/6 14/13/6 33/14/6
f 33/14/7 14/13/7 16/15/7 35/16/7
f 35/16/8 16/15/8 18/17/8 37/18/8
f 4/19/9 2/20/9 20/21/9 18/22/9 16/23/9 14/24/9 12/25/9 10/26/9 8/27/9 6/28/9
f 37/18/10 18/17/10 20/29/10 39/30/10
f 39/30/11 20/29/11 2/31/11 22/32/11
f 1/33/12 3/34/12 5/35/12 7/36/12 9/37/12 11/38/12 13/39/12 15/40/12 17/41/12 19/42/12
f 19/43/13 40/44/13 21/45/13 1/46/13
f 40/44/14 39/30/14 22/32/14 21/45/14
f 17/47/15 38/48/15 40/44/15 19/43/15
f 38/48/16 37/18/16 39/30/16 40/44/16
f 15/49/17 36/50/17 38/48/17 17/47/17
f 36/50/18 35/16/18 37/18/18 38/48/18
f 13/51/19 34/52/19 36/50/19 15/49/19
f 34/52/20 33/14/20 35/16/20 36/50/20
f 11/53/21 32/54/21 34/52/21 13/51/21
f 32/54/22 31/12/22 33/14/22 34/52/22
f 9/55/23 30/56/23 32/54/23 11/53/23
f 30/56/24 29/10/24 31/12/24 32/54/24
f 7/57/25 28/58/25 30/56/25 9/55/25
f 28/58/26 27/8/26 29/10/26 30/56/26
f 5/59/27 26/60/27 28/58/27 7/57/27
f 26/60/28 25/6/28 27/8/28 28/58/28
f 3/61/29 24/62/29 26/60/29 5/59/29
f 24/62/30 23/4/30 25/6/30 26/60/30
f 1/63/31 21/64/31 24/62/31 3/61/31
f 21/64/32 22/1/32 23/4/32 24/62/32
