# Blender v3.0.1 OBJ File: 'to_statue.blend'
# www.blender.org
mtllib to_statue.mtl
o Curve
v 1.164497 1.055365 1.635890
v 1.104349 -0.327166 2.423883
v 1.525176 1.416044 0.008412
v 0.954757 -0.327166 2.032658
v 1.164498 -1.173869 1.635889
v 0.351962 -0.327167 1.671642
v 1.525176 -1.534548 0.008412
v 0.152199 -0.327167 1.669020
v -1.064737 1.055365 1.635890
v -0.067306 -0.327167 1.722451
v -1.425416 1.416044 0.008412
v -0.275829 -0.327167 1.836587
v -1.064737 -1.173869 1.635889
v -0.463765 -0.327168 2.032663
v -1.425416 -1.534548 0.008412
v -0.562541 -0.327168 2.217598
v -0.617509 -0.327168 2.451539
v -0.618710 -0.327168 2.560668
v -0.618730 -0.327168 3.758211
v -1.232512 -0.327168 3.314696
v -1.426244 -0.327168 3.262661
v -1.584222 -0.327169 3.298997
v -1.690344 -0.327169 3.383507
v -1.784032 -0.327169 3.586370
v -1.665566 -0.327169 3.898159
v 0.290087 -0.327167 5.266603
v 0.439716 -0.327167 5.254513
v 0.562976 -0.327167 5.197833
v 0.688140 -0.327167 4.783860
v 0.620351 -0.327167 4.661239
v 0.108596 -0.327167 4.284246
v 0.109808 -0.327167 3.384927
v 0.278506 -0.327167 3.395348
v 0.682590 -0.327167 3.278331
v 0.954738 -0.327166 3.027987
v 1.053522 -0.327166 2.843059
v 1.106967 -0.327166 2.623604
v 0.432985 -0.327167 2.424696
v 0.461340 -0.327167 2.525589
v 0.310292 -0.327167 2.736210
v 0.116682 -0.327167 2.701723
v 0.032646 -0.327167 2.553375
v 0.145705 -0.327167 2.338935
v 0.222499 -0.327167 2.317536
v 0.379615 -0.327167 2.363651
v 1.104348 0.208666 2.423883
v 1.053534 0.208666 2.217591
v 0.766820 0.208666 1.836583
v 0.558295 0.208666 1.722448
v 0.351961 0.208666 1.671642
v -0.463765 0.208665 2.032663
v -0.618731 0.208665 3.758211
v -1.232512 0.208665 3.314696
v -1.326996 0.208664 3.275165
v -1.426245 0.208664 3.262661
v -1.584222 0.208664 3.298997
v -1.784033 0.208664 3.586370
v -1.758530 0.208664 3.770403
v -1.665567 0.208664 3.898159
v 0.108596 0.208666 4.284246
v 0.109808 0.208666 3.384927
v 0.278505 0.208666 3.395348
v 0.479237 0.208666 3.365139
v 0.682590 0.208666 3.278331
v 0.954737 0.208666 3.027987
v 1.053522 0.208666 2.843059
v 1.106967 0.208666 2.623604
v 0.436916 0.208666 2.630090
v 0.116682 0.208666 2.701723
v 0.039560 0.208666 2.465532
v 0.145704 0.208666 2.338935
v 0.222499 0.208666 2.317536
v 0.379614 0.208666 2.363651
v 1.053535 -0.327166 2.217591
v 0.954757 0.208666 2.032658
v 0.766820 -0.327167 1.836583
v 0.558295 -0.327167 1.722448
v 0.152199 0.208666 1.669020
v -0.067307 0.208666 1.722451
v -0.275829 0.208665 1.836587
v -0.562542 0.208665 2.217598
v -0.617510 0.208665 2.451539
v -1.326996 -0.327168 3.275165
v -1.690344 0.208664 3.383507
v -1.747515 0.208664 3.468253
v -1.747515 -0.327169 3.468253
v -1.758529 -0.327169 3.770403
v 0.156371 0.208666 5.215917
v 0.156371 -0.327167 5.215917
v 0.290087 0.208666 5.266603
v 0.439716 0.208666 5.254513
v 0.562975 0.208666 5.197833
v 0.666561 0.208666 5.073171
v 0.666562 -0.327167 5.073171
v 0.710029 0.208666 4.932355
v 0.710030 -0.327167 4.932355
v 0.688140 0.208666 4.783860
v 0.620351 0.208666 4.661239
v 0.479238 -0.327167 3.365139
v 0.815038 0.208666 3.181682
v 0.815038 -0.327167 3.181682
v 0.432984 0.208666 2.424696
v 0.461339 0.208666 2.525589
v 0.436916 -0.327167 2.630090
v 0.379676 0.208666 2.697092
v 0.379676 -0.327167 2.697092
v 0.310292 0.208666 2.736210
v 0.194286 0.208666 2.740020
v 0.194286 -0.327167 2.740020
v 0.054040 0.208666 2.630086
v 0.054041 -0.327167 2.630086
v 0.032646 0.208666 2.553375
v 0.039561 -0.327167 2.465532
v 0.078688 0.208666 2.396162
v 0.078688 -0.327167 2.396162
v 0.310268 0.208666 2.324517
v 0.310269 -0.327167 2.324517
v 0.682590 -0.327167 3.278331
v 0.815038 -0.327167 3.181682
v 1.164497 1.055365 1.635890
v 1.164497 1.055365 1.635890
v 1.525176 1.416044 0.008412
v 1.525176 1.416044 0.008412
v 1.164498 -1.173869 1.635889
v 1.164498 -1.173869 1.635889
v 1.525176 -1.534548 0.008412
v 1.525176 -1.534548 0.008412
v -1.064737 1.055365 1.635890
v -1.064737 1.055365 1.635890
v -1.425416 1.416044 0.008412
v -1.425416 1.416044 0.008412
v -1.064737 -1.173869 1.635889
v -1.064737 -1.173869 1.635889
v -1.425416 -1.534548 0.008412
v -1.425416 -1.534548 0.008412
v -0.617509 -0.327168 2.451539
v -0.618710 -0.327168 2.560668
v -1.426244 -0.327168 3.262661
v -1.584222 -0.327169 3.298997
v -0.562542 0.208665 2.217598
v -0.617510 0.208665 2.451539
v 0.108596 -0.327167 4.284246
v 0.108596 -0.327167 4.284246
v 0.108596 0.208666 4.284246
v 0.108596 0.208666 4.284246
v 0.558295 0.208666 1.722448
v 0.351961 0.208666 1.671642
v -1.232512 0.208665 3.314696
v -1.326996 0.208664 3.275165
v -1.784033 0.208664 3.586370
v -1.758530 0.208664 3.770403
v 0.116682 0.208666 2.701723
v 0.194286 0.208666 2.740020
v 0.109808 0.208666 3.384927
v 0.109808 0.208666 3.384927
v 0.278505 0.208666 3.395348
v 0.436916 -0.327167 2.630090
v 0.379676 -0.327167 2.697092
v -1.326996 -0.327168 3.275165
v -1.747515 0.208664 3.468253
v -1.665566 -0.327169 3.898159
v -1.758529 -0.327169 3.770403
v 0.156371 -0.327167 5.215917
v -1.690344 -0.327169 3.383507
v -1.747515 -0.327169 3.468253
v 0.666561 0.208666 5.073171
v 0.710029 0.208666 4.932355
v 0.688140 0.208666 4.783860
v 0.620351 0.208666 4.661239
v 0.278506 -0.327167 3.395348
v 0.479238 -0.327167 3.365139
v 0.954737 0.208666 3.027987
v 0.815038 0.208666 3.181682
v 0.379614 0.208666 2.363651
v 0.432984 0.208666 2.424696
v 0.379676 0.208666 2.697092
v 0.310292 0.208666 2.736210
v 0.116682 -0.327167 2.701723
v 0.194286 -0.327167 2.740020
v 0.054040 0.208666 2.630086
v 0.054041 -0.327167 2.630086
v 0.032646 -0.327167 2.553375
v 0.310268 0.208666 2.324517
v 0.379615 -0.327167 2.363651
v 0.310269 -0.327167 2.324517
v 0.954757 -0.327166 2.032658
v 1.053535 -0.327166 2.217591
v 0.766820 -0.327167 1.836583
v 1.053534 0.208666 2.217591
v 0.954757 0.208666 2.032658
v 0.351962 -0.327167 1.671642
v 0.152199 -0.327167 1.669020
v -0.067306 -0.327167 1.722451
v -0.275829 -0.327167 1.836587
v -0.463765 -0.327168 2.032663
v -0.562541 -0.327168 2.217598
v -0.618730 -0.327168 3.758211
v -0.618730 -0.327168 3.758211
v 0.290087 -0.327167 5.266603
v 0.439716 -0.327167 5.254513
v 0.620351 -0.327167 4.661239
v 1.104349 -0.327166 2.423883
v 1.106967 -0.327166 2.623604
v 0.432985 -0.327167 2.424696
v 1.104348 0.208666 2.423883
v -1.426245 0.208664 3.262661
v -1.665567 0.208664 3.898159
v 0.479237 0.208666 3.365139
v 1.053522 0.208666 2.843059
v 1.106967 0.208666 2.623604
v 0.152199 0.208666 1.669020
v -0.067307 0.208666 1.722451
v 0.039560 0.208666 2.465532
v 0.032646 0.208666 2.553375
v 0.290087 0.208666 5.266603
v 0.439716 0.208666 5.254513
v 0.666562 -0.327167 5.073171
v 0.710030 -0.327167 4.932355
v 0.078688 0.208666 2.396162
v 0.039561 -0.327167 2.465532
v 0.688140 -0.327167 4.783860
v -0.463765 0.208665 2.032663
v -0.275829 0.208665 1.836587
v 0.078688 -0.327167 2.396162
v 0.109808 -0.327167 3.384927
v 0.109808 -0.327167 3.384927
v -1.232512 -0.327168 3.314696
v 0.562976 -0.327167 5.197833
v 0.954738 -0.327166 3.027987
v 1.053522 -0.327166 2.843059
v 0.461339 0.208666 2.525589
v 0.145705 -0.327167 2.338935
v 0.222499 -0.327167 2.317536
v -0.618731 0.208665 3.758211
v -0.618731 0.208665 3.758211
v -1.584222 0.208664 3.298997
v 0.682590 0.208666 3.278331
v 0.145704 0.208666 2.338935
v 0.222499 0.208666 2.317536
v 0.156371 0.208666 5.215917
v 0.310292 -0.327167 2.736210
v 0.562975 0.208666 5.197833
v 0.461340 -0.327167 2.525589
v 0.558295 -0.327167 1.722448
v 0.766820 0.208666 1.836583
v -1.690344 0.208664 3.383507
v -1.784032 -0.327169 3.586370
v 0.436916 0.208666 2.630090
vt 0.316792 0.357341
vt 0.337718 0.332383
vt 0.330004 0.346059
vt 0.300814 0.361658
vt 0.338977 0.313666
vt 0.333502 0.297512
vt 0.040574 0.361658
vt 0.321378 0.285071
vt 0.306704 0.278170
vt 0.233141 0.277527
vt 0.023191 0.355982
vt 0.129253 0.277529
vt 0.048029 0.165224
vt 0.172257 0.193108
vt 0.008317 0.340454
vt 0.003730 0.326900
vt 0.041611 0.277568
vt 0.003343 0.315075
vt 0.205559 0.166195
vt 0.188784 0.182643
vt 0.007563 0.299952
vt 0.218742 0.144261
vt 0.030069 0.280270
vt 0.019914 0.285829
vt 0.224607 0.126214
vt 0.227283 0.102325
vt 0.136437 0.126900
vt 0.224004 0.078283
vt 0.147057 0.118674
vt 0.214131 0.054078
vt 0.126561 0.128572
vt 0.150911 0.110300
vt 0.151734 0.100134
vt 0.115828 0.126103
vt 0.146937 0.088677
vt 0.108619 0.120360
vt 0.040740 0.154909
vt 0.103309 0.111653
vt 0.200339 0.035526
vt 0.137434 0.081139
vt 0.102273 0.102494
vt 0.128289 0.079034
vt 0.104676 0.092582
vt 0.030028 0.129242
vt 0.181582 0.019626
vt 0.119131 0.080068
vt 0.110427 0.085366
vt 0.026747 0.105199
vt 0.159775 0.008983
vt 0.031072 0.074064
vt 0.128851 0.003343
vt 0.042886 0.049217
vt 0.101554 0.006783
vt 0.059847 0.029318
vt 0.078758 0.016014
vt 0.367849 0.357341
vt 0.354637 0.346059
vt 0.346922 0.332383
vt 0.383827 0.361658
vt 0.345664 0.313666
vt 0.351138 0.297512
vt 0.134065 0.783957
vt 0.072049 0.783957
vt 0.072049 0.760164
vt 0.134065 0.760164
vt 0.644067 0.361658
vt 0.363263 0.285071
vt 0.377937 0.278170
vt 0.451500 0.277527
vt 0.661450 0.355982
vt 0.555387 0.277529
vt 0.643900 0.154909
vt 0.512384 0.193108
vt 0.676324 0.340454
vt 0.680911 0.326900
vt 0.643030 0.277568
vt 0.681298 0.315075
vt 0.495857 0.182643
vt 0.479081 0.166195
vt 0.677078 0.299952
vt 0.465899 0.144261
vt 0.654572 0.280270
vt 0.664727 0.285829
vt 0.460034 0.126214
vt 0.457357 0.102325
vt 0.548204 0.126900
vt 0.460637 0.078283
vt 0.537583 0.118674
vt 0.470509 0.054078
vt 0.558079 0.128572
vt 0.533730 0.110300
vt 0.532907 0.100134
vt 0.568813 0.126103
vt 0.537704 0.088677
vt 0.576022 0.120360
vt 0.581332 0.111653
vt 0.484302 0.035526
vt 0.547206 0.081139
vt 0.582368 0.102494
vt 0.556352 0.079034
vt 0.579964 0.092582
vt 0.654613 0.129242
vt 0.503059 0.019626
vt 0.565509 0.080068
vt 0.574214 0.085366
vt 0.657894 0.105199
vt 0.524866 0.008983
vt 0.653568 0.074064
vt 0.555790 0.003343
vt 0.641755 0.049217
vt 0.583086 0.006783
vt 0.624794 0.029318
vt 0.605882 0.016014
vt 0.003343 0.867396
vt 0.003343 0.854787
vt 0.065359 0.867397
vt 0.678089 0.716524
vt 0.678089 0.736014
vt 0.616073 0.736014
vt 0.072049 0.738918
vt 0.134065 0.738918
vt 0.072049 0.716524
vt 0.134065 0.716524
vt 0.271469 0.837175
vt 0.209453 0.837175
vt 0.209453 0.812788
vt 0.271469 0.812788
vt 0.209453 0.788798
vt 0.271469 0.788798
vt 0.209453 0.765676
vt 0.271469 0.765676
vt 0.209453 0.740397
vt 0.271469 0.740397
vt 0.209453 0.716524
vt 0.271469 0.716524
vt 0.065362 0.941158
vt 0.003346 0.941157
vt 0.003344 0.917000
vt 0.065360 0.917001
vt 0.003343 0.894850
vt 0.065359 0.894851
vt 0.065362 0.716525
vt 0.003346 0.716524
vt 0.202767 0.841371
vt 0.140751 0.841371
vt 0.140751 0.769348
vt 0.202767 0.769348
vt 0.140751 0.758325
vt 0.202767 0.758325
vt 0.140751 0.746813
vt 0.202767 0.746813
vt 0.140751 0.728614
vt 0.202767 0.728614
vt 0.140751 0.716524
vt 0.202767 0.716524
vt 0.753478 0.847244
vt 0.753478 0.785228
vt 0.763724 0.785227
vt 0.763724 0.847243
vt 0.777656 0.785227
vt 0.777656 0.847243
vt 0.798698 0.785227
vt 0.798698 0.847243
vt 0.812696 0.785229
vt 0.812696 0.847245
vt 0.608681 0.887192
vt 0.546665 0.887192
vt 0.546665 0.680133
vt 0.608681 0.680133
vt 0.546665 0.664806
vt 0.608681 0.664806
vt 0.546665 0.647459
vt 0.608681 0.647459
vt 0.546665 0.633036
vt 0.608681 0.633036
vt 0.746791 0.778713
vt 0.684775 0.778713
vt 0.684775 0.764123
vt 0.746791 0.764123
vt 0.684775 0.747758
vt 0.746791 0.747758
vt 0.684775 0.730608
vt 0.746791 0.730608
vt 0.684775 0.716524
vt 0.746791 0.716524
vt 0.813545 0.716524
vt 0.813545 0.778540
vt 0.753478 0.778540
vt 0.753478 0.716524
vt 0.340171 0.820602
vt 0.340171 0.716524
vt 0.278155 0.716524
vt 0.278155 0.820602
vt 0.678089 0.759325
vt 0.616073 0.759325
vt 0.616073 0.716524
vt 0.678089 0.783100
vt 0.616073 0.783100
vt 0.678089 0.798699
vt 0.616073 0.798699
vt 0.134065 0.872112
vt 0.072049 0.872112
vt 0.072049 0.854105
vt 0.134065 0.854105
vt 0.072049 0.832547
vt 0.134065 0.832547
vt 0.072049 0.807066
vt 0.134065 0.807066
vt 0.716656 0.785400
vt 0.705236 0.785400
vt 0.705236 0.847416
vt 0.716656 0.847416
vt 0.692974 0.785400
vt 0.692974 0.847416
vt 0.684775 0.785401
vt 0.684775 0.847417
vt 0.646495 0.805385
vt 0.638555 0.805385
vt 0.638555 0.867401
vt 0.646495 0.867401
vt 0.625140 0.805385
vt 0.625140 0.867401
vt 0.616073 0.805385
vt 0.616073 0.867401
vt 0.854684 0.785227
vt 0.846493 0.785227
vt 0.846493 0.847243
vt 0.854684 0.847243
vt 0.837649 0.785227
vt 0.837649 0.847243
vt 0.827473 0.785227
vt 0.827473 0.847243
vt 0.819383 0.785227
vt 0.819383 0.847243
vt 0.855142 0.716524
vt 0.847225 0.716524
vt 0.847225 0.778540
vt 0.855142 0.778540
vt 0.838279 0.716524
vt 0.838279 0.778540
vt 0.828144 0.716524
vt 0.828144 0.778540
vt 0.820232 0.716524
vt 0.820232 0.778540
vt 0.723272 0.785401
vt 0.723272 0.847417
vt 0.616073 0.410088
vt 0.616073 0.668094
vt 0.804986 0.709838
vt 0.804986 0.368344
vt 0.539979 0.932786
vt 0.351459 0.974530
vt 0.351459 0.633036
vt 0.539979 0.674780
vt 0.811672 0.410082
vt 0.996657 0.368344
vt 0.996657 0.709838
vt 0.811672 0.668087
vt 0.876507 0.303093
vt 0.876507 0.045087
vt 0.687984 0.003343
vt 0.687984 0.344837
vt 0.351459 0.368344
vt 0.609387 0.368344
vt 0.609387 0.626350
vt 0.351459 0.626350
vt 0.003343 0.368344
vt 0.344772 0.368344
vt 0.344772 0.709838
vt 0.003343 0.709838
vn 0.0000 -1.0000 -0.0000
vn -0.0000 1.0000 0.0000
vn 0.9919 -0.0000 -0.1270
vn 0.9337 0.0000 -0.3579
vn -0.9927 0.0000 -0.1206
vn -1.0000 0.0006 -0.0050
vn -0.9932 0.0005 -0.1161
vn -0.0617 -0.0000 0.9981
vn 0.0438 0.0000 0.9990
vn 0.9338 -0.0000 -0.3579
vn 0.8096 0.0000 -0.5870
vn 0.6081 0.0000 -0.7938
vn 0.6081 -0.0000 -0.7939
vn 0.6081 0.0001 -0.7939
vn 0.3627 0.0000 -0.9319
vn 0.3626 -0.0000 -0.9319
vn 0.1269 0.0000 -0.9919
vn -0.1126 0.0000 -0.9936
vn -0.3614 0.0000 -0.9324
vn -0.6081 0.0000 -0.7938
vn -0.8096 0.0000 -0.5870
vn -0.9357 0.0000 -0.3529
vn -0.9932 0.0005 -0.1160
vn -1.0000 0.0011 -0.0005
vn -1.0000 0.0006 -0.0051
vn 0.5857 0.0000 -0.8105
vn 0.4891 0.0000 -0.8722
vn 0.4890 -0.0000 -0.8723
vn 0.2578 0.0000 -0.9662
vn 0.2579 -0.0000 -0.9662
vn -0.0503 0.0000 -0.9987
vn -0.0504 -0.0000 -0.9987
vn -0.4343 0.0000 -0.9008
vn -0.4343 -0.0000 -0.9007
vn -0.7345 0.0000 -0.6786
vn -0.9019 0.0000 -0.4319
vn -0.9019 -0.0000 -0.4320
vn -0.9967 0.0000 -0.0810
vn -0.9274 0.0000 0.3741
vn -0.9274 -0.0000 0.3740
vn -0.7061 0.0000 0.7081
vn -0.4744 0.0000 0.8803
vn -0.1404 0.0000 0.9901
vn 0.2531 0.0000 0.9675
vn 0.2531 -0.0001 0.9675
vn 0.2530 -0.0000 0.9675
vn 0.6086 0.0000 0.7935
vn 0.6085 -0.0000 0.7935
vn 0.8793 0.0000 0.4762
vn 0.8793 -0.0001 0.4762
vn 0.9971 0.0000 0.0765
vn 0.9971 -0.0000 0.0764
vn 0.9474 0.0000 -0.3200
vn 0.7515 0.0000 -0.6597
vn 0.5931 0.0000 -0.8051
vn -1.0000 -0.0000 -0.0013
vn 0.2729 0.0000 0.9620
vn 0.4942 0.0000 0.8693
vn 0.6682 0.0000 0.7440
vn 0.6681 -0.0000 0.7440
vn 0.8173 0.0000 0.5763
vn 0.8172 -0.0000 0.5763
vn 0.9342 0.0000 0.3567
vn 0.9936 0.0000 0.1127
vn 0.9936 -0.0000 0.1126
vn 0.8794 -0.0000 -0.4761
vn 0.9998 -0.0000 -0.0222
vn 0.8923 -0.0000 0.4514
vn 0.8923 0.0001 0.4514
vn 0.6355 -0.0000 0.7721
vn 0.6354 -0.0000 0.7721
vn 0.2697 -0.0000 0.9629
vn -0.2112 -0.0000 0.9774
vn -0.2112 -0.0001 0.9774
vn -0.6094 -0.0000 0.7928
vn -0.8798 -0.0000 0.4753
vn -0.8799 -0.0000 0.4752
vn -0.9953 -0.0000 0.0966
vn -0.9565 -0.0000 -0.2917
vn -0.9565 -0.0000 -0.2918
vn -0.7720 -0.0000 -0.6356
vn -0.4700 -0.0000 -0.8827
vn -0.0961 -0.0000 -0.9954
vn -0.0960 -0.0000 -0.9954
vn 0.2923 -0.0000 -0.9563
vn 0.2922 -0.0000 -0.9563
vn 0.6312 -0.0000 -0.7756
vn -0.9763 -0.0000 -0.2164
vn 0.0000 -0.9763 0.2164
vn -0.9763 0.0000 0.2164
vn 0.0000 -0.9763 -0.2164
vn 0.0000 -0.0000 1.0000
vn 0.0000 0.0000 -1.0000
usemtl SVGMat
s off
f 199/1/1 228/2/1 200/3/1
f 163/4/1 228/2/1 199/1/1
f 163/4/1 217/5/1 228/2/1
f 163/4/1 218/6/1 217/5/1
f 161/7/1 218/6/1 163/4/1
f 161/7/1 221/8/1 218/6/1
f 161/7/1 201/9/1 221/8/1
f 161/7/1 143/10/1 201/9/1
f 162/11/1 143/10/1 161/7/1
f 197/12/1 143/10/1 162/11/1
f 137/13/1 143/10/1 197/12/1
f 137/13/1 225/14/1 143/10/1
f 24/15/1 197/12/1 162/11/1
f 86/16/1 197/12/1 24/15/1
f 86/16/1 20/17/1 197/12/1
f 164/18/1 20/17/1 86/16/1
f 225/14/1 171/19/1 170/20/1
f 137/13/1 171/19/1 225/14/1
f 139/21/1 20/17/1 164/18/1
f 137/13/1 118/22/1 171/19/1
f 139/21/1 83/23/1 20/17/1
f 138/24/1 83/23/1 139/21/1
f 137/13/1 119/25/1 118/22/1
f 137/13/1 229/26/1 119/25/1
f 137/13/1 179/27/1 229/26/1
f 179/27/1 230/28/1 229/26/1
f 179/27/1 241/29/1 230/28/1
f 241/29/1 203/30/1 230/28/1
f 137/13/1 41/31/1 179/27/1
f 158/32/1 203/30/1 241/29/1
f 157/33/1 203/30/1 158/32/1
f 137/13/1 181/34/1 41/31/1
f 243/35/1 203/30/1 157/33/1
f 137/13/1 182/36/1 181/34/1
f 136/37/1 182/36/1 137/13/1
f 136/37/1 220/38/1 182/36/1
f 243/35/1 202/39/1 203/30/1
f 38/40/1 202/39/1 243/35/1
f 136/37/1 224/41/1 220/38/1
f 45/42/1 202/39/1 38/40/1
f 136/37/1 232/43/1 224/41/1
f 196/44/1 232/43/1 136/37/1
f 45/42/1 187/45/1 202/39/1
f 185/46/1 187/45/1 45/42/1
f 196/44/1 44/47/1 232/43/1
f 44/47/1 187/45/1 185/46/1
f 196/44/1 187/45/1 44/47/1
f 195/48/1 187/45/1 196/44/1
f 195/48/1 186/49/1 187/45/1
f 12/50/1 186/49/1 195/48/1
f 12/50/1 188/51/1 186/49/1
f 193/52/1 188/51/1 12/50/1
f 193/52/1 77/53/1 188/51/1
f 192/54/1 77/53/1 193/52/1
f 192/54/1 191/55/1 77/53/1
f 90/56/2 216/57/2 242/58/2
f 88/59/2 90/56/2 242/58/2
f 88/59/2 242/58/2 166/60/2
f 88/59/2 166/60/2 167/61/2
f 205/62/3 2/63/3 74/64/4 47/65/4
f 59/66/2 88/59/2 167/61/2
f 59/66/2 167/61/2 97/67/2
f 59/66/2 97/67/2 169/68/2
f 59/66/2 169/68/2 145/69/2
f 151/70/2 59/66/2 145/69/2
f 234/71/2 151/70/2 145/69/2
f 141/72/2 234/71/2 145/69/2
f 141/72/2 145/69/2 154/73/2
f 150/74/2 151/70/2 234/71/2
f 160/75/2 150/74/2 234/71/2
f 160/75/2 234/71/2 148/76/2
f 246/77/2 160/75/2 148/76/2
f 154/73/2 156/78/2 208/79/2
f 141/72/2 154/73/2 208/79/2
f 236/80/2 246/77/2 148/76/2
f 141/72/2 208/79/2 64/81/2
f 236/80/2 148/76/2 149/82/2
f 55/83/2 236/80/2 149/82/2
f 141/72/2 64/81/2 173/84/2
f 141/72/2 173/84/2 172/85/2
f 141/72/2 172/85/2 153/86/2
f 153/86/2 172/85/2 209/87/2
f 153/86/2 209/87/2 177/88/2
f 177/88/2 209/87/2 67/89/2
f 141/72/2 153/86/2 152/90/2
f 176/91/2 177/88/2 67/89/2
f 248/92/2 176/91/2 67/89/2
f 141/72/2 152/90/2 180/93/2
f 231/94/2 248/92/2 67/89/2
f 141/72/2 180/93/2 112/95/2
f 141/72/2 112/95/2 213/96/2
f 231/94/2 67/89/2 46/97/2
f 102/98/2 231/94/2 46/97/2
f 141/72/2 213/96/2 219/99/2
f 73/100/2 102/98/2 46/97/2
f 141/72/2 219/99/2 238/101/2
f 140/102/2 141/72/2 238/101/2
f 73/100/2 46/97/2 189/103/2
f 183/104/2 73/100/2 189/103/2
f 140/102/2 238/101/2 72/105/2
f 72/105/2 183/104/2 189/103/2
f 140/102/2 72/105/2 189/103/2
f 51/106/2 140/102/2 189/103/2
f 51/106/2 189/103/2 75/107/2
f 80/108/2 51/106/2 75/107/2
f 80/108/2 75/107/2 48/109/2
f 212/110/2 80/108/2 48/109/2
f 212/110/2 48/109/2 146/111/2
f 211/112/2 212/110/2 146/111/2
f 211/112/2 146/111/2 147/113/2
f 17/114/5 18/115/6 82/116/7
f 32/117/8 33/118/9 62/119/9
f 47/65/10 74/64/10 4/120/11 190/121/11
f 190/121/11 4/120/11 76/122/12 245/123/12
f 245/124/13 76/125/14 244/126/15 49/127/15
f 49/127/16 244/126/16 6/128/17 50/129/17
f 50/129/17 6/128/17 8/130/18 78/131/18
f 78/131/18 8/130/18 10/132/19 79/133/19
f 79/133/19 10/132/19 194/134/20 223/135/20
f 223/136/20 194/137/20 14/138/21 222/139/21
f 222/139/21 14/138/21 16/140/22 81/141/22
f 81/141/22 16/140/22 17/114/5 82/116/23
f 235/142/24 82/116/23 18/115/25 198/143/24
f 52/144/26 19/145/26 227/146/27 53/147/27
f 53/147/28 227/146/28 159/148/29 54/149/29
f 54/149/30 159/148/30 21/150/31 206/151/31
f 206/151/32 21/150/32 22/152/33 56/153/33
f 56/153/34 22/152/34 23/154/35 84/155/35
f 84/156/35 23/157/35 165/158/36 85/159/36
f 85/159/37 165/158/37 247/160/38 57/161/38
f 57/161/38 247/160/38 87/162/39 58/163/39
f 58/163/40 87/162/40 25/164/41 207/165/41
f 207/166/41 25/167/41 89/168/42 240/169/42
f 240/169/42 89/168/42 26/170/43 215/171/43
f 215/171/43 26/170/43 27/172/44 91/173/45
f 91/173/46 27/172/46 28/174/47 92/175/47
f 92/176/48 28/177/48 94/178/49 93/179/50
f 93/179/49 94/178/49 96/180/51 95/181/51
f 95/181/52 96/180/52 29/182/53 168/183/53
f 168/183/53 29/182/53 30/184/54 98/185/54
f 98/186/54 30/187/54 142/188/55 144/189/55
f 60/190/56 155/191/56 226/192/56 31/193/56
f 62/119/9 33/118/9 99/194/57 63/195/57
f 32/117/8 62/119/9 61/196/8
f 63/195/57 99/194/57 34/197/58 237/198/58
f 237/198/58 34/197/58 101/199/59 100/200/59
f 100/201/60 101/202/60 35/203/61 65/204/61
f 65/204/62 35/203/62 36/205/63 66/206/63
f 66/206/63 36/205/63 37/207/64 210/208/64
f 210/208/65 37/207/65 2/63/3 205/62/3
f 175/209/66 103/210/67 39/211/67 204/212/66
f 103/210/67 68/213/68 104/214/69 39/211/67
f 68/213/68 105/215/70 106/216/70 104/214/68
f 105/217/71 107/218/72 40/219/72 106/220/71
f 107/218/72 108/221/73 109/222/73 40/219/72
f 108/221/74 69/223/75 178/224/75 109/222/73
f 69/225/75 110/226/76 111/227/76 178/228/75
f 110/226/77 214/229/78 42/230/78 111/227/77
f 214/229/78 70/231/79 113/232/79 42/230/78
f 70/231/80 114/233/81 115/234/81 113/232/80
f 114/235/81 71/236/82 43/237/82 115/238/81
f 71/236/82 239/239/83 233/240/83 43/237/82
f 239/239/84 116/241/85 117/242/85 233/240/84
f 116/241/86 174/243/87 184/244/87 117/242/86
f 174/245/87 175/209/66 204/212/66 184/246/87
f 124/247/88 120/248/88 122/249/88 126/250/88
f 132/251/89 134/252/89 127/253/89 125/254/89
f 129/255/90 130/256/90 135/257/90 133/258/90
f 121/259/91 128/260/91 131/261/91 123/262/91
f 1/263/92 9/264/92 13/265/92 5/266/92
f 11/267/93 3/268/93 7/269/93 15/270/93
