<?xml version="1.0" encoding="utf-8"?>
<!-- Generator: Adobe Illustrator 25.2.3, SVG Export Plug-In . SVG Version: 6.00 Build 0)  -->
<svg version="1.1" id="레이어_1" xmlns="http://www.w3.org/2000/svg" xmlns:xlink="http://www.w3.org/1999/xlink" x="0px"
	 y="0px" viewBox="0 0 256 160" style="enable-background:new 0 0 256 160;" xml:space="preserve">
<style type="text/css">
	.st0{display:none;}
	.st1{display:inline;}
	.st2{fill:#FFFFFF;}
</style>
<g id="레이어_1_1_" class="st0">
	<g class="st1">
		<rect x="32.5" y="0.5" class="st2" width="191" height="159"/>
		<path d="M223,1v158H33V1H223 M224,0H32v160h192V0L224,0z"/>
	</g>
</g>
<g>
	<path class="st2" d="M37,8.8c-8-6.7-23.6,0.6-27.2,10.4c-3.1,8.5,1.2,17.9,0.6,26.9c-0.6,9.1-6.1,18-3.8,26.9
		c1.2,4.5,4.3,8.2,5.7,12.6c2.5,7.7-0.5,16-2.9,23.7s-3.8,16.9,1.1,23.4c1.3,1.7,3,3.2,3.7,5.3c1.2,3.4-0.9,7.4,0.5,10.7
		c1.7,3.9,7.1,4.5,11.1,3.3c4.1-1.1,8.1-3.3,12.3-2.8c3.9,0.5,7.1,3.1,10.8,4.3c10.2,3.2,20.2-5.5,30.8-6.1
		c10.4-0.7,20,6.3,30.4,5.9c7.2-0.3,14.1-4.1,21.3-3.8c6,0.2,11.6,3.2,17.6,3.2c7.9-0.1,15.2-5.4,23.1-5.2
		c8.8,0.2,16.9,7.3,25.6,5.7c3.6-0.7,6.8-2.8,10.3-3.7c11.5-3,24.7,6.7,34.9,0.7c6.4-3.8,8.3-12.4,7.7-19.8s-3-14.8-2.4-22.2
		c0.4-5.4,2.3-10.9,1-16.1c-0.8-3.1-2.7-5.9-3.4-9.1c-2.1-9,5.7-18.8,1.9-27.2c-1.1-2.6-3.2-4.6-4.2-7.2c-2.5-6.5,2.1-13.3,3.3-20.2
		c1.1-6.3-1-13.1-5.4-17.7s-11.1-7-17.5-6.1c-7,0.9-13.1,5.4-20.1,6.3c-11.5,1.5-22.8-6.8-34.2-4.5c-4.9,1-9.3,4-14.3,4.8
		c-11.3,1.8-22-8.1-33.3-6.5c-6.4,0.9-11.8,5.3-18.1,6.6C91.8,13.6,78.9,4,66.8,7.8C63,9,59.8,11.4,56.1,12.9
		C50.7,15.1,41.2,11.7,37,8.8"/>
	<g>
		<path d="M37.9,7.9c-7.8-6.4-19.8-1.5-25.7,5.2c-4,4.6-5.1,10.3-4.6,16.2c0.3,3.5,1,7,1.4,10.6c0.4,3.5,0.3,7-0.4,10.5
			c-1.4,6.5-4.3,13-3.7,19.7c0.6,7,6.1,12.1,7,19c1,7.3-2.1,14.5-4,21.4c-1.6,5.8-2.7,12.3-0.7,18.2c0.4,1.3,1,2.5,1.7,3.7
			c0.9,1.4,2.1,2.6,3.1,3.9c0.9,1.2,1.5,2.5,1.5,4c0,1.8-0.4,3.5-0.4,5.3c0,2.8,1.1,5.3,3.5,6.8c2.2,1.3,5,1.5,7.5,1.2
			c3.3-0.4,6.2-1.9,9.4-2.7c1.6-0.4,3.2-0.7,4.9-0.4c1.7,0.3,3.4,1,4.9,1.8c2.8,1.4,5.5,2.7,8.7,3.1c2.9,0.3,5.9-0.2,8.8-1
			c6-1.7,11.6-4.8,17.8-5.6c6.6-0.9,13,1.7,19.3,3.6c3.1,1,6.3,1.8,9.6,2.1c3.4,0.3,6.8-0.2,10.1-1.1c3.4-0.8,6.7-2,10.2-2.5
			c3.6-0.5,7.1,0,10.6,0.9c3.3,0.9,6.7,1.9,10.2,2c3.3,0.1,6.5-0.7,9.6-1.7c3.1-1,6.2-2.3,9.4-3c3.2-0.7,6.4-0.7,9.5,0.2
			c5.9,1.6,11.4,5,17.7,5.2c3.3,0.1,6.2-0.9,9.2-2.2c3-1.3,5.8-2.4,9.1-2.4c10.8-0.2,23.5,7.8,33.1-0.5c4.2-3.6,5.8-9.4,6.2-14.7
			c0.4-7.1-1.8-14.1-2.4-21.1c-0.3-3.9,0.1-7.6,0.7-11.4c0.6-3.5,1.1-7.2,0.2-10.7c-0.8-3.3-2.8-6.1-3.5-9.4c-0.6-3,0-6,0.7-8.9
			c1.3-5.4,3.6-11.3,1.8-16.9c-1-3.1-3.4-5.3-4.6-8.3c-1.3-3.2-0.6-6.6,0.4-9.7c1-3.3,2.4-6.4,2.9-9.8c0.5-3.1,0.4-6.2-0.3-9.2
			c-1.5-6-5.6-11.3-11.3-14c-5.9-2.9-12.3-2.8-18.4-0.6c-3.2,1.1-6.3,2.6-9.5,3.7c-3.2,1.1-6.4,1.5-9.8,1.2
			c-6.6-0.6-12.7-3.3-19.2-4.4c-3.1-0.5-6.2-0.7-9.4-0.2c-3.4,0.6-6.5,2.1-9.7,3.4c-3.1,1.2-6.1,1.9-9.5,1.7c-3-0.2-6-1.2-8.8-2.2
			c-5.7-2-11.3-4.6-17.5-4.7c-6.7,0-12.1,3.9-18.3,6.1c-6.2,2.1-12.6,0.8-18.8-0.8c-6-1.5-12.1-3.3-18.3-2.4
			c-3.3,0.5-6.2,1.9-9.1,3.5c-2.6,1.4-5.1,3-8.1,3c-5,0.1-10.6-1.8-14.7-4.7c-1.3-0.9-2.5,1.2-1.2,2.1c4.2,2.9,9.7,4.8,14.8,5
			c2.8,0.1,5.1-0.6,7.6-1.8c3-1.5,5.8-3.4,9.1-4.3c6-1.6,12.3,0.1,18.1,1.6c5.8,1.5,11.7,3,17.7,2c6.4-1.1,11.7-5.5,18.1-6.6
			c6-1.1,11.9,1.4,17.4,3.4c5.4,2,10.9,3.9,16.7,3c3.4-0.5,6.6-2.1,9.7-3.4c3-1.2,6.1-1.9,9.3-1.8c6.4,0.2,12.5,2.8,18.7,4.2
			c3,0.6,6.1,1.1,9.1,0.8c3.3-0.2,6.4-1.2,9.4-2.4c6-2.4,12-5.2,18.6-3.8c6.2,1.4,11.4,5.6,13.8,11.5c1.1,2.8,1.6,5.9,1.4,8.9
			c-0.3,3.4-1.6,6.6-2.6,9.8c-1,2.9-1.9,6-1.7,9.2c0.2,3.2,1.8,5.6,3.5,8.2c1.8,2.7,2.6,5.3,2.4,8.5c-0.2,2.9-1,5.7-1.7,8.5
			c-0.7,2.8-1.4,5.6-1.5,8.5c-0.1,3.2,0.8,6.1,2.1,9c0.6,1.4,1.3,2.9,1.7,4.4c0.5,1.8,0.5,3.7,0.3,5.6c-0.3,3.6-1.2,7.1-1.4,10.7
			c-0.4,7.5,2,14.7,2.5,22.1c0.4,5.3-0.4,11.3-3.8,15.6c-3.7,4.6-9.4,5.2-14.8,4.4c-5.6-0.8-11-2.7-16.7-2.9c-3-0.1-6,0.3-8.8,1.4
			c-3,1.2-5.8,2.8-9.1,3.1c-6.1,0.5-11.7-2.9-17.4-4.7c-2.8-0.9-5.8-1.4-8.8-1.2c-3.1,0.3-6.1,1.2-9,2.2c-3.1,1.1-6.2,2.3-9.5,2.8
			c-3.4,0.5-6.7-0.1-10-1c-3.2-0.8-6.4-1.8-9.8-2c-3.4-0.2-6.9,0.5-10.2,1.4c-3.3,0.9-6.5,1.9-9.9,2.3c-3.3,0.4-6.6-0.1-9.8-0.9
			c-6.2-1.5-12.2-4.3-18.6-4.8c-6.3-0.6-12.1,1.7-18,3.9c-5.6,2.1-11.6,4.2-17.4,1.8c-2.9-1.1-5.4-3-8.5-3.7c-3.2-0.8-6.4,0-9.5,1.1
			c-2.9,1-5.7,2.2-8.9,2c-2.4-0.1-5-1.2-5.7-3.7c-0.9-3,0.6-6.1-0.1-9.2c-0.6-3.1-3.3-5-4.9-7.6c-3.1-5.2-2.5-11.8-1.1-17.4
			c1.6-6.8,4.5-13.3,4.8-20.3c0.2-3.4-0.4-6.8-1.7-9.9c-1.3-3.1-3.2-5.8-4.4-9c-2.4-6.5,0-13.1,1.7-19.5c0.8-3.1,1.6-6.3,1.7-9.6
			c0.1-3.4-0.4-6.7-0.9-10c-0.9-6.2-1.9-13,1.7-18.5c2.6-4,7-7,11.6-8.5c4-1.3,8.8-1.4,12.2,1.4C37.4,10.6,39.1,8.9,37.9,7.9
			L37.9,7.9z"/>
	</g>
</g>
</svg>
