<?xml version="1.0" encoding="utf-8"?>
<!-- Generator: Adobe Illustrator 25.2.3, SVG Export Plug-In . SVG Version: 6.00 Build 0)  -->
<svg version="1.1" id="레이어_1" xmlns="http://www.w3.org/2000/svg" xmlns:xlink="http://www.w3.org/1999/xlink" x="0px"
	 y="0px" viewBox="0 0 256 24" style="enable-background:new 0 0 256 24;" xml:space="preserve">
<g>
	<g>
		<path d="M8.4,13.1c3.2-0.1,6.3-0.1,9.5-0.1c1.3,0,1.3-1.9,0-2c-3.2-0.1-6.3-0.1-9.5,0.1C7.1,11.1,7.1,13.1,8.4,13.1L8.4,13.1z"/>
	</g>
</g>
<g>
	<g>
		<path d="M24.7,9.6c3.5,1.2,6.6,3.6,8.7,6.7c0.3,0.4,0.9,0.6,1.4,0.4c0.4-0.3,0.7-0.9,0.4-1.4c-2.4-3.5-5.9-6.2-9.9-7.6
			C24.1,7.3,23.5,9.2,24.7,9.6L24.7,9.6z"/>
	</g>
</g>
<g>
	<g>
		<path d="M27.1,16.6c0.9-1.5,2-2.9,3.2-4.1c0.6-0.6,1.2-1.2,1.9-1.8c0.3-0.3,0.7-0.6,1-0.8c0.1-0.1,0.3-0.2,0.4-0.3
			c0.1,0-0.1,0,0.1,0c-0.2,0-0.5-0.1-0.6-0.3c0.2,0.5,0.9,0.6,1.4,0.4c0.5-0.3,0.6-0.9,0.4-1.4c-0.3-0.6-1-0.8-1.6-0.7
			c-0.5,0.1-0.9,0.4-1.3,0.8c-0.8,0.7-1.6,1.4-2.4,2.1c-1.5,1.5-2.9,3.2-4,5.1C24.7,16.7,26.5,17.7,27.1,16.6L27.1,16.6z"/>
	</g>
</g>
<g>
	<g>
		<path d="M43.6,13.3c3.7-0.4,7.5-0.1,11.1,0.9c1.2,0.3,1.8-1.6,0.5-1.9c-3.8-1-7.7-1.3-11.6-0.9c-0.5,0.1-1,0.4-1,1
			C42.6,12.8,43.1,13.4,43.6,13.3L43.6,13.3z"/>
	</g>
</g>
<g>
	<g>
		<path d="M62.5,10.5c2.9,2.3,5.7,4.7,8.4,7.2c0-0.5,0-0.9,0-1.4c0.2-0.2,0.8-0.2,0.9,0.2c-0.1-0.5-0.7-0.8-1.2-0.7
			C70,16,69.8,16.5,69.8,17c0.2,1.1,1.7,1.4,2.4,0.7c0.4-0.4,0.4-1,0-1.4c-2.7-2.5-5.5-4.9-8.4-7.2c-0.4-0.3-1-0.4-1.4,0
			C62.2,9.5,62.1,10.2,62.5,10.5L62.5,10.5z"/>
	</g>
</g>
<g>
	<g>
		<path d="M69.6,8c-2.7,2.6-5,5.6-6.8,8.8c-0.6,1.1,1.1,2.1,1.7,1c1.8-3.1,4-5.9,6.5-8.4C71.9,8.5,70.5,7.1,69.6,8L69.6,8z"/>
	</g>
</g>
<g>
	<g>
		<path d="M79.2,13.2c3.2,0.1,6.3,0.4,9.5,0.7c0.5,0.1,1-0.5,1-1c0-0.6-0.5-0.9-1-1c-3.2-0.4-6.3-0.6-9.5-0.7
			C77.9,11.1,77.9,13.1,79.2,13.2L79.2,13.2z"/>
	</g>
</g>
<g>
	<g>
		<path d="M96.2,10c1.3,1.5,2.6,3,4,4.5c0.7,0.7,1.3,1.5,2,2.2c0.7,0.7,2,1,2.5,0c0.3-0.5,0.1-1.1-0.4-1.4c-0.4-0.3-1.1-0.1-1.4,0.4
			c0.2-0.1,0.4-0.2,0.6-0.3c0.1,0,0.2,0,0.1,0c-0.1,0-0.1,0,0,0c0.1,0,0.1,0,0,0c-0.1,0-0.1,0,0,0c0,0,0,0-0.1-0.1
			c0-0.1-0.1-0.1-0.1-0.2c-0.3-0.3-0.5-0.6-0.8-0.9c-0.6-0.6-1.1-1.3-1.7-1.9c-1.1-1.3-2.2-2.5-3.3-3.8c-0.4-0.4-1-0.4-1.4,0
			C95.8,9,95.8,9.6,96.2,10L96.2,10z"/>
	</g>
</g>
<g>
	<g>
		<path d="M101.7,8.5c-2.3,2.2-4.2,4.8-5.5,7.7c-0.2,0.5-0.1,1.1,0.4,1.4c0.4,0.3,1.1,0.1,1.4-0.4c1.3-2.8,3-5.2,5.2-7.3
			C104,9,102.6,7.6,101.7,8.5L101.7,8.5z"/>
	</g>
</g>
<g>
	<g>
		<path d="M111.2,13.3c2.1,0.4,4.2,0.2,6.3,0.1c2-0.2,4.1-0.3,6,0.5c0.5,0.2,1.1-0.2,1.2-0.7c0.2-0.6-0.2-1-0.7-1.2
			c-4-1.6-8.2,0.2-12.3-0.6C110.4,11.1,109.9,13,111.2,13.3L111.2,13.3z"/>
	</g>
</g>
<g>
	<g>
		<path d="M130.4,10.4c1,0.8,2.1,1.7,3.1,2.7c0.5,0.5,1,1,1.4,1.5c0.5,0.6,0.8,1,1.2,1.6c0.3,0.4,0.9,0.7,1.4,0.4
			c0.4-0.3,0.7-0.9,0.4-1.4c-1.8-2.5-4-4.7-6.5-6.5c-0.4-0.3-1.1-0.1-1.4,0.4C129.7,9.6,129.9,10.1,130.4,10.4L130.4,10.4z"/>
	</g>
</g>
<g>
	<g>
		<path d="M136.2,7.2c-1.7,1.8-3.2,3.9-4.5,6.1c-0.6,1.1-1.2,2.2-1.6,3.4c-0.2,0.7-0.1,1.5,0.5,1.8c0.7,0.4,1.6,0,1.8-0.7
			c0.4-1.2-1.6-1.7-1.9-0.5c0,0,0,0.1,0,0.1c0.1-0.1,0.2-0.3,0.3-0.4c0,0,0,0-0.1,0.1c0.1-0.1,0.3-0.2,0.4-0.3
			c0.2,0.1,0.4,0.1,0.6,0.2c0.1,0.1,0.2,0.3,0.3,0.4c0,0.1,0,0,0.1-0.1c0-0.1,0.1-0.2,0.1-0.2c0.1-0.2,0.2-0.4,0.3-0.6
			c0.2-0.4,0.4-0.8,0.6-1.2c0.4-0.8,0.9-1.6,1.4-2.4c1-1.5,2.1-2.9,3.3-4.2C138.4,7.6,137,6.2,136.2,7.2L136.2,7.2z"/>
	</g>
</g>
<g>
	<g>
		<path d="M143.1,13.3c4.7,0.2,9.3,0.4,14,0.5c1.3,0,1.3-1.9,0-2c-4.7-0.2-9.3-0.4-14-0.5C141.8,11.3,141.8,13.3,143.1,13.3
			L143.1,13.3z"/>
	</g>
</g>
<g>
	<g>
		<path d="M162.9,9.6c2.7,2.4,5.4,5,7.9,7.7c0.9,0.9,2.3-0.5,1.4-1.4c-2.5-2.7-5.1-5.2-7.9-7.7c-0.4-0.4-1-0.4-1.4,0
			C162.5,8.6,162.5,9.3,162.9,9.6L162.9,9.6z"/>
	</g>
</g>
<g>
	<g>
		<path d="M169.4,7.2c-2.7,2.2-4.7,5.3-5.4,8.7c-0.1,0.5,0.2,1.1,0.7,1.2c0.5,0.1,1.1-0.2,1.2-0.7c0.7-3.1,2.4-5.8,4.9-7.8
			c0.4-0.3,0.3-1.1,0-1.4C170.4,6.8,169.8,6.9,169.4,7.2L169.4,7.2z"/>
	</g>
</g>
<g>
	<g>
		<path d="M179.7,13.2c1.4-0.1,2.8-0.2,4.2-0.3c0.7,0,1.4-0.1,2.1-0.1c0.3,0,0.7,0,1-0.1c0.2,0,0.3,0,0.5,0c0.1,0,0.2,0,0.3,0
			c0.2,0,0.2,0-0.2-0.1c-0.1-0.1-0.2-0.3-0.3-0.4c0-0.1,0-0.3,0.1-0.4c0.1-0.1,0.2-0.2,0.4-0.4c0,0,0,0-0.1,0
			c-0.5,0.2-0.6,0.9-0.4,1.4c0.3,0.5,0.9,0.6,1.4,0.4c0.5-0.2,0.7-0.8,0.6-1.3c-0.1-0.5-0.5-0.9-1-1.1c-0.4-0.1-0.9,0-1.3,0
			c-0.5,0-1,0.1-1.5,0.1c-1.9,0.1-3.8,0.3-5.7,0.4c-0.5,0-1,0.4-1,1C178.7,12.7,179.2,13.2,179.7,13.2L179.7,13.2z"/>
	</g>
</g>
<g>
	<g>
		<path d="M201.2,7.4c-2.6,2.4-5.1,4.8-7.7,7.2c-0.8,0.8,0.2,2.1,1.2,1.6c0.3-0.1,0.5-0.3,0.8-0.4c1.1-0.6,0.1-2.3-1-1.7
			c-0.3,0.1-0.5,0.3-0.8,0.4c0.4,0.5,0.8,1,1.2,1.6c2.6-2.4,5.1-4.8,7.7-7.2C203.5,7.9,202.1,6.5,201.2,7.4L201.2,7.4z"/>
	</g>
</g>
<g>
	<g>
		<path d="M195.5,8.8c2.1,1.9,4.1,4,5.9,6.2c0.3,0.4,1.1,0.4,1.4,0c0.4-0.4,0.4-1,0-1.4c-1.9-2.2-3.8-4.3-5.9-6.2
			c-0.4-0.4-1-0.4-1.4,0C195.1,7.8,195,8.5,195.5,8.8L195.5,8.8z"/>
	</g>
</g>
<g>
	<g>
		<path d="M208.1,12.8c3.1,0.4,6.3,0.6,9.5,0.5c1.3-0.1,1.3-2,0-2c-3,0.1-6,0-9-0.4c-0.5-0.1-1.1,0.1-1.2,0.7
			C207.3,12,207.6,12.7,208.1,12.8L208.1,12.8z"/>
	</g>
</g>
<g>
	<g>
		<path d="M228.9,8c-2.4,1.9-4.5,4.3-6.1,6.9c-0.3,0.5-0.1,1.1,0.4,1.4c0.5,0.3,1.1,0.1,1.4-0.4c1.5-2.5,3.5-4.7,5.8-6.5
			c0.4-0.3,0.3-1.1,0-1.4C229.9,7.6,229.3,7.7,228.9,8L228.9,8z"/>
	</g>
</g>
<g>
	<g>
		<path d="M222.5,9.1c3.1,1.7,5.7,4.2,7.5,7.3c0.7,1.1,2.4,0.1,1.7-1c-2-3.3-4.9-6.1-8.2-8C222.4,6.7,221.4,8.5,222.5,9.1L222.5,9.1
			z"/>
	</g>
</g>
<g>
	<g>
		<path d="M235.7,12.7c3.8,0.3,7.5,0.4,11.3,0.2c1.3-0.1,1.3-2,0-2c-3.8,0.2-7.6,0.1-11.3-0.2C234.5,10.6,234.5,12.6,235.7,12.7
			L235.7,12.7z"/>
	</g>
</g>
</svg>
