<?xml version="1.0" encoding="utf-8"?>
<!-- Generator: Adobe Illustrator 25.2.3, SVG Export Plug-In . SVG Version: 6.00 Build 0)  -->
<svg version="1.1" id="레이어_1" xmlns="http://www.w3.org/2000/svg" xmlns:xlink="http://www.w3.org/1999/xlink" x="0px"
	 y="0px" viewBox="0 0 256 24" style="enable-background:new 0 0 256 24;" xml:space="preserve">
<g>
	<g>
		<path d="M8.8,12.7c3.4-0.4,6.8-0.2,10,0.6c1.2,0.3,1.8-1.6,0.5-1.9c-3.4-0.9-7-1.1-10.6-0.7c-0.5,0.1-1,0.4-1,1
			C7.8,12.2,8.3,12.8,8.8,12.7L8.8,12.7z"/>
	</g>
</g>
<g>
	<g>
		<path d="M26.7,12.1c-0.2,0-0.5,0-0.7,0c-0.1,0-0.2,0-0.3,0c-0.1,0-0.2,0.1-0.2,0.1c-0.1,0.1-0.1,0.1-0.2,0.2
			c-0.1,0.1-0.2,0.2-0.2,0.3c0,0.1-0.1,0.2-0.1,0.2c0,0.1,0,0.2,0,0.3c0,0.1,0,0.2,0.1,0.2c0,0.1,0.1,0.2,0.2,0.3
			c0.1,0.2,0.3,0.4,0.4,0.5c0.1,0.1,0.2,0.2,0.3,0.2c0.1,0.1,0.2,0.1,0.4,0.1c0.1,0,0.3,0,0.4-0.1c0.1,0,0.2-0.1,0.3-0.2
			c0.1-0.1,0.1-0.1,0.2-0.2c0.1-0.2,0.1-0.3,0.1-0.5c0-0.1,0-0.2,0-0.3c0-0.2-0.1-0.3-0.3-0.4c-0.1-0.2-0.3-0.4-0.4-0.5
			c-0.2,0.6-0.5,1.1-0.7,1.7c0.2,0,0.5,0,0.7,0c0.1,0,0.3,0,0.4-0.1c0.1,0,0.2-0.1,0.3-0.2c0.1-0.1,0.2-0.2,0.2-0.3
			c0.1-0.1,0.1-0.2,0.1-0.4c0-0.1,0-0.2,0-0.3c0-0.2-0.1-0.3-0.3-0.4c-0.1-0.1-0.1-0.1-0.2-0.2C27,12.1,26.9,12.1,26.7,12.1
			L26.7,12.1z"/>
	</g>
</g>
<g>
	<g>
		<path d="M34.8,13.8c3.5-0.3,7-0.4,10.5-0.2c1.3,0.1,1.3-1.9,0-2c-3.5-0.2-7-0.1-10.5,0.2c-0.5,0.1-1,0.4-1,1
			C33.9,13.3,34.3,13.9,34.8,13.8L34.8,13.8z"/>
	</g>
</g>
<g>
	<g>
		<path d="M52.7,11.5c-0.1,0-0.2,0-0.3,0c-0.1,0-0.3,0-0.4,0.1c-0.1,0-0.2,0.1-0.3,0.2c-0.1,0.1-0.2,0.2-0.2,0.3
			c-0.1,0.1-0.1,0.2-0.1,0.4c0,0.1,0,0.2,0,0.3c0,0.2,0.1,0.3,0.3,0.4c0.1,0.1,0.1,0.1,0.2,0.2c0.2,0.1,0.3,0.1,0.5,0.1
			c0.1,0,0.2,0,0.3,0c0.1,0,0.3,0,0.4-0.1c0.1,0,0.2-0.1,0.3-0.2c0.1-0.1,0.2-0.2,0.2-0.3c0.1-0.1,0.1-0.2,0.1-0.4
			c0-0.1,0-0.2,0-0.3c0-0.2-0.1-0.3-0.3-0.4c-0.1-0.1-0.1-0.1-0.2-0.2C53.1,11.6,52.9,11.5,52.7,11.5L52.7,11.5z"/>
	</g>
</g>
<g>
	<g>
		<path d="M59.6,13.8c2-0.1,4-0.2,5.9-0.2c1,0,1.9-0.1,2.9-0.1c0.5,0,1,0,1.4-0.1c0.3,0,0.6,0,0.8,0c0.1,0,0.2,0,0.3,0
			c0.4,0.1,0.4-0.2-0.1-0.9c0.1-0.1,0.3-0.2,0.4-0.3c0,0-0.1,0-0.1,0c0.2,0,0.4,0,0.5,0c0,0-0.1,0-0.1,0c-1.2-0.2-1.8,1.7-0.5,1.9
			c1.3,0.3,2.2-1.4,1.2-2.3c-0.4-0.4-1.1-0.5-1.6-0.5c-0.8,0-1.5,0.1-2.3,0.1c-2.9,0.1-5.9,0.2-8.8,0.4
			C58.3,11.9,58.3,13.9,59.6,13.8L59.6,13.8z"/>
	</g>
</g>
<g>
	<g>
		<path d="M79.6,11c-0.2,0.1-0.4,0.1-0.5,0.2c-0.1,0-0.2,0.1-0.3,0.2c-0.1,0.1-0.2,0.2-0.3,0.3c-0.1,0.1-0.1,0.2-0.1,0.4
			c0,0.1,0,0.3,0,0.4c0,0.1,0.1,0.2,0.1,0.2c0.1,0.1,0.2,0.3,0.4,0.4c0.1,0,0.2,0.1,0.2,0.1c0.2,0,0.4,0,0.5,0
			c0.2-0.1,0.4-0.1,0.5-0.2c0.1,0,0.2-0.1,0.3-0.2c0.1-0.1,0.2-0.2,0.3-0.3c0.1-0.1,0.1-0.2,0.1-0.4c0-0.1,0-0.3,0-0.4
			c0-0.1-0.1-0.2-0.1-0.2c-0.1-0.1-0.2-0.3-0.4-0.4c-0.1,0-0.2-0.1-0.2-0.1C79.9,11,79.7,11,79.6,11L79.6,11z"/>
	</g>
</g>
<g>
	<g>
		<path d="M88.8,12.5c2.2,0.2,4.3,0.5,6.5,0.7c0.5,0.1,1,0.1,1.6,0.2c0.5,0.1,1,0.2,1.5,0.1c1.1,0,2-1.2,1.1-2.2
			c-0.4-0.4-1-0.4-1.4,0c-0.4,0.4-0.4,1,0,1.4c0,0,0,0,0.1,0.1c-0.1-0.1-0.2-0.3-0.3-0.4c0,0,0,0,0,0.1c0-0.2,0-0.4,0-0.5
			c0,0,0,0,0,0.1c0.1-0.1,0.2-0.3,0.3-0.4c0.1-0.1,0.2,0,0-0.1c-0.1-0.1-0.4,0-0.6-0.1c-0.4,0-0.8-0.1-1.3-0.1
			c-0.8-0.1-1.6-0.2-2.4-0.3c-1.7-0.2-3.3-0.4-5-0.5c-0.5-0.1-1,0.5-1,1C87.8,12.1,88.3,12.5,88.8,12.5L88.8,12.5z"/>
	</g>
</g>
<g>
	<g>
		<path d="M104.1,12.4c0.1,0.1,0.2,0.2,0.3,0.3c0.1,0.1,0.2,0.2,0.3,0.2c0.1,0.1,0.2,0.1,0.4,0.1c0.1,0,0.3,0,0.4-0.1
			c0.1,0,0.2-0.1,0.3-0.2c0.1-0.1,0.1-0.1,0.2-0.2c0.1-0.2,0.1-0.3,0.1-0.5c0-0.1,0-0.2,0-0.3c0-0.2-0.1-0.3-0.3-0.4
			c-0.1-0.1-0.2-0.2-0.3-0.3c-0.1-0.1-0.2-0.2-0.3-0.2c-0.1-0.1-0.2-0.1-0.4-0.1c-0.1,0-0.3,0-0.4,0.1c-0.1,0-0.2,0.1-0.3,0.2
			c-0.1,0.1-0.1,0.1-0.2,0.2c-0.1,0.2-0.1,0.3-0.1,0.5c0,0.1,0,0.2,0,0.3C103.9,12.2,104,12.3,104.1,12.4L104.1,12.4z"/>
	</g>
</g>
<g>
	<g>
		<path d="M115.1,13.2c3.2,0.4,6.3,0.6,9.5,0.7c1.3,0,1.3-1.9,0-2c-3.2-0.1-6.3-0.3-9.5-0.7c-0.5-0.1-1,0.5-1,1
			C114.1,12.8,114.6,13.1,115.1,13.2L115.1,13.2z"/>
	</g>
</g>
<g>
	<g>
		<path d="M131.7,13.8c0.1,0,0.2,0,0.3,0c0.1,0,0.3,0,0.4-0.1c0.1,0,0.2-0.1,0.3-0.2c0.1-0.1,0.2-0.2,0.2-0.3
			c0.1-0.1,0.1-0.2,0.1-0.4c0-0.1,0-0.2,0-0.3c0-0.2-0.1-0.3-0.3-0.4c-0.1-0.1-0.1-0.1-0.2-0.2c-0.2-0.1-0.3-0.1-0.5-0.1
			c-0.1,0-0.2,0-0.3,0c-0.1,0-0.3,0-0.4,0.1c-0.1,0-0.2,0.1-0.3,0.2c-0.1,0.1-0.2,0.2-0.2,0.3c-0.1,0.1-0.1,0.2-0.1,0.4
			c0,0.1,0,0.2,0,0.3c0,0.2,0.1,0.3,0.3,0.4c0.1,0.1,0.1,0.1,0.2,0.2C131.3,13.7,131.5,13.8,131.7,13.8L131.7,13.8z"/>
	</g>
</g>
<g>
	<g>
		<path d="M140.9,13.6c2.6-1,5.4-1.3,8.1-1c0.5,0.1,1-0.5,1-1c0-0.6-0.5-0.9-1-1c-2.9-0.4-5.9,0-8.6,1c-0.5,0.2-0.8,0.7-0.7,1.2
			C139.9,13.4,140.4,13.8,140.9,13.6L140.9,13.6z"/>
	</g>
</g>
<g>
	<g>
		<path d="M156.9,11c-0.1,0-0.1,0-0.2,0c-1.3,0-1.3,2,0,2c0.1,0,0.1,0,0.2,0C158.2,13,158.2,11,156.9,11c-0.1,0-0.1,0-0.2,0
			c-1.3,0-1.3,2,0,2c0.1,0,0.1,0,0.2,0C158.2,13,158.2,11,156.9,11L156.9,11z"/>
	</g>
</g>
<g>
	<g>
		<path d="M164.3,13.4c1.8,0.1,3.7,0.1,5.5,0.2c0.9,0,1.8,0.1,2.7,0.1c0.4,0,0.8,0,1.3,0c0.3,0,0.7,0,0.9,0.2c0.4,0.3,1,0.4,1.4,0
			c0.3-0.3,0.4-1.1,0-1.4c-0.7-0.6-1.5-0.7-2.5-0.8c-1.1,0-2.1-0.1-3.2-0.1c-2.1-0.1-4.1-0.1-6.2-0.2C163,11.4,163,13.4,164.3,13.4
			L164.3,13.4z"/>
	</g>
</g>
<g>
	<g>
		<path d="M181.4,12.1C181.4,12.1,181.4,12.1,181.4,12.1c0.1,0,0.1-0.1,0.2-0.1c0,0,0,0-0.1,0c0.1,0,0.2,0,0.3,0c0,0,0,0-0.1,0
			c0.1,0,0.2,0,0.3,0c0,0-0.1,0-0.1,0c0.1,0,0.2,0.1,0.2,0.1c0,0-0.1,0-0.1,0c0.1,0.1,0.1,0.1,0.2,0.2c0,0-0.1-0.1-0.1-0.1
			c0.1,0.1,0.1,0.1,0.2,0.2c0,0,0-0.1-0.1-0.1c0,0.1,0.1,0.2,0.1,0.2c0,0,0-0.1,0-0.1c0,0.1,0,0.2,0,0.3c0,0,0-0.1,0-0.1
			c0,0.1,0,0.2,0,0.3c0,0,0,0,0-0.1c0,0.1-0.1,0.2-0.1,0.2c0,0,0,0,0-0.1c-0.1,0.1-0.1,0.1-0.2,0.2c0,0,0,0,0-0.1
			c-0.1,0.1-0.1,0.1-0.2,0.2c0,0,0,0,0.1,0c-0.1,0-0.2,0.1-0.2,0.1c0,0,0,0,0.1,0c-0.1,0-0.2,0-0.3,0c0,0,0.1,0,0.1,0
			c-0.1,0-0.2,0-0.3,0c0,0,0.1,0,0.1,0c-0.1,0-0.2-0.1-0.2-0.1c0,0,0.1,0,0.1,0.1c-0.1-0.1-0.1-0.1-0.2-0.2c0,0,0.1,0,0.1,0.1
			c-0.1-0.1-0.1-0.1-0.2-0.2c0,0,0,0,0,0.1c0-0.1-0.1-0.2-0.1-0.2c0,0,0,0,0,0.1c0-0.1,0-0.2,0-0.3c0,0,0,0,0,0.1c0-0.1,0-0.2,0-0.3
			c0,0,0,0,0,0c0,0.1,0,0.3,0,0.4c0,0.1,0,0.3,0.1,0.4c0.1,0.1,0.1,0.2,0.3,0.3c0.1,0.1,0.2,0.1,0.3,0.2c0.1,0,0.2,0,0.3,0
			c0.2,0,0.3,0,0.5-0.1c0.1-0.1,0.1-0.1,0.2-0.2c0.1-0.1,0.2-0.3,0.3-0.4c0,0,0,0,0,0c0,0,0-0.1,0-0.1c0,0,0-0.1,0-0.1c0,0,0,0,0,0
			c0-0.1,0-0.2,0-0.3c0,0,0,0,0,0c0,0,0,0,0,0c0-0.1-0.1-0.2-0.1-0.3c0,0,0,0,0,0c0,0,0,0,0,0c-0.1-0.1-0.1-0.1-0.2-0.2c0,0,0,0,0,0
			c0,0,0,0,0,0c-0.1-0.1-0.2-0.1-0.2-0.2c0,0,0,0,0,0c0,0,0,0,0,0c-0.1,0-0.2-0.1-0.3-0.1c0,0,0,0,0,0c0,0,0,0,0,0c0,0,0,0,0,0
			c-0.1,0-0.2,0-0.3,0c0,0,0,0,0,0c0,0,0,0,0,0c-0.1,0-0.2,0-0.3,0c0,0,0,0,0,0c0,0,0,0,0,0c-0.1,0-0.2,0.1-0.3,0.1
			c-0.1,0-0.2,0.1-0.3,0.2c0,0,0,0,0,0c-0.1,0.1-0.1,0.1-0.2,0.2c0,0,0,0,0,0c0,0,0,0,0,0c0,0.1-0.1,0.2-0.1,0.3c0,0,0,0,0,0
			c0,0.1,0,0.2,0,0.3c0,0.1,0,0.2,0.1,0.4c0,0.1,0.1,0.2,0.1,0.2c0,0,0,0,0,0c0,0,0,0,0,0c0,0,0,0,0,0c0.1,0.1,0.1,0.1,0.2,0.2
			c0,0,0,0,0,0c0.1,0.1,0.2,0.2,0.3,0.2c0.1,0,0.1,0.1,0.2,0.1c0.1,0,0.1,0.1,0.2,0.1c0,0,0,0,0,0c0.1,0,0.2,0,0.3,0c0,0,0,0,0.1,0
			c0.1,0,0.2,0,0.3,0c0,0,0,0,0,0c0,0,0,0,0,0c0,0,0,0,0,0c0.1,0,0.2-0.1,0.3-0.1c0.1-0.1,0.2-0.1,0.3-0.3c0.1-0.1,0.1-0.2,0.2-0.3
			c0-0.1,0-0.3,0-0.4c0-0.1,0-0.3-0.1-0.4c-0.1-0.1-0.1-0.1-0.2-0.2c-0.1-0.1-0.3-0.2-0.4-0.3c-0.1,0-0.2,0-0.3,0
			C181.7,12,181.6,12,181.4,12.1L181.4,12.1z"/>
	</g>
</g>
<g>
	<g>
		<path d="M188.8,13.9c3-0.9,6.3-1.1,9.4-0.7c0.5,0.1,1.1-0.1,1.2-0.7c0.1-0.5-0.2-1.1-0.7-1.2c-3.5-0.5-7-0.3-10.5,0.7
			C187.1,12.4,187.6,14.3,188.8,13.9L188.8,13.9z"/>
	</g>
</g>
<g>
	<g>
		<path d="M204.6,12.3c0,0.1,0,0.2,0,0.3c0,0.1,0,0.3,0.1,0.4c0,0.1,0.1,0.2,0.2,0.3c0.1,0.1,0.2,0.2,0.3,0.2
			c0.1,0.1,0.2,0.1,0.4,0.1c0.1,0,0.2,0,0.3,0c0.2,0,0.3-0.1,0.4-0.3c0.1-0.1,0.1-0.1,0.2-0.2c0.1-0.2,0.1-0.3,0.1-0.5
			c0-0.1,0-0.2,0-0.3c0-0.1,0-0.3-0.1-0.4c0-0.1-0.1-0.2-0.2-0.3c-0.1-0.1-0.2-0.2-0.3-0.2c-0.1-0.1-0.2-0.1-0.4-0.1
			c-0.1,0-0.2,0-0.3,0c-0.2,0-0.3,0.1-0.4,0.3c-0.1,0.1-0.1,0.1-0.2,0.2C204.7,11.9,204.6,12.1,204.6,12.3L204.6,12.3z"/>
	</g>
</g>
<g>
	<g>
		<path d="M213.3,13.8c1.4-0.4,2.8-0.7,4.2-0.9c0.6-0.1,1.3-0.1,1.9-0.2c0.3,0,0.7,0,1-0.1c0.2,0,0.4,0,0.6,0c0.1,0,0.2,0,0.3,0
			c0.4,0,0.3-0.3-0.3-0.9c0.1-0.1,0.2-0.2,0.4-0.4c0,0,0,0-0.1,0c0.2,0,0.3-0.1,0.5-0.1c0,0-0.1,0-0.1,0c-0.5,0.1-1,0.4-1,1
			c0,0.5,0.5,1,1,1c0.6-0.1,1-0.3,1.2-0.9c0.2-0.6-0.1-1.2-0.7-1.5c-0.5-0.2-1-0.2-1.5-0.2c-0.5,0-1.1,0-1.6,0.1
			c-2.1,0.2-4.2,0.5-6.3,1.1C211.5,12.3,212,14.2,213.3,13.8L213.3,13.8z"/>
	</g>
</g>
<g>
	<g>
		<path d="M229.1,13.3c1.3,0,1.3-2,0-2C227.8,11.3,227.8,13.3,229.1,13.3L229.1,13.3z"/>
	</g>
</g>
<g>
	<g>
		<path d="M236.4,13.7c3.4,0.1,6.8,0.1,10.3,0.2c1.3,0,1.3-2,0-2c-3.4-0.1-6.8-0.1-10.3-0.2C235.1,11.7,235.1,13.7,236.4,13.7
			L236.4,13.7z"/>
	</g>
</g>
</svg>
