<?xml version="1.0" encoding="utf-8"?>
<!-- Generator: Adobe Illustrator 25.2.3, SVG Export Plug-In . SVG Version: 6.00 Build 0)  -->
<svg version="1.1" id="레이어_1" xmlns="http://www.w3.org/2000/svg" xmlns:xlink="http://www.w3.org/1999/xlink" x="0px"
	 y="0px" viewBox="0 0 256 24" style="enable-background:new 0 0 256 24;" xml:space="preserve">
<g>
	<g>
		<path d="M8.2,11.7c-0.2-0.7-1-1-1.6-0.6c-0.6,0.3-0.7,1.1-0.3,1.6c0.4,0.5,1,0.5,1.6,0.6c0.6,0.1,1.2,0.1,1.8,0.1
			c2.4,0.1,4.8-0.1,7.1-0.7c1.2-0.3,0.7-2.2-0.5-1.9c-1.5,0.3-3,0.5-4.5,0.6c-0.8,0-1.5,0-2.3,0c-0.4,0-0.7,0-1.1-0.1
			c-0.2,0-0.4,0-0.5-0.1c-0.1,0-0.2,0-0.4,0c0,0,0,0,0.1,0c0.1,0.1,0.2,0.2,0.4,0.4c0,0,0-0.1,0-0.1C7.9,11.8,8,12,8,12.3
			c0,0,0,0,0-0.1c-0.1,0.1-0.2,0.3-0.3,0.4c0,0,0,0,0.1,0c-0.1,0.1-0.3,0.2-0.4,0.3c0,0,0,0,0.1,0c-0.2,0-0.4,0-0.5,0c0,0,0,0,0.1,0
			c-0.2-0.2-0.5-0.5-0.7-0.7c0,0,0,0,0,0.1C6.6,13.5,8.6,12.9,8.2,11.7L8.2,11.7z"/>
	</g>
</g>
<g>
	<g>
		<path d="M27.4,9.3c-2.1-0.2-3.6,1.9-3.7,3.8c-0.1,1.8,1,3.7,2.6,4.4c1.7,0.8,3.8,0.5,5.2-0.8c1.4-1.2,1.8-3.3,1.1-5
			c-0.4-1-1.1-1.9-2.1-2.3c-1-0.4-2.3-0.5-3.2,0.2c-0.4,0.3-0.6,0.9-0.4,1.4c0.2,0.4,0.9,0.7,1.4,0.4c0.1-0.1,0.2-0.1,0.2-0.2
			c0.2-0.2-0.1,0,0,0c0.1,0,0.1,0,0.2-0.1c0.2-0.1-0.2,0,0.1,0c0.1,0,0.1,0,0.2,0c0,0,0.3,0,0.1,0c0.2,0,0.4,0.1,0.5,0.1
			c-0.2-0.1,0,0,0,0c0.1,0,0.2,0.1,0.2,0.1c0,0,0.2,0.2,0.1,0.1c-0.1-0.1,0.1,0.1,0.1,0.1c0.1,0.1,0.2,0.2,0.3,0.3
			c-0.1-0.2,0,0.1,0.1,0.1c0,0.1,0.1,0.2,0.1,0.2c0,0.1,0.1,0.2,0.1,0.2c-0.1-0.2,0,0,0,0c0,0.2,0.1,0.3,0.1,0.5c0,0.1,0,0.1,0,0.2
			c0-0.2,0,0,0,0.1c0,0.2,0,0.4,0,0.5c0,0.1,0,0.2,0,0c0,0.1,0,0.2-0.1,0.3c0,0.1-0.1,0.3-0.1,0.4c-0.1,0.2,0,0,0,0
			c0,0.1-0.1,0.2-0.1,0.2c0,0.1-0.1,0.1-0.1,0.2c0,0,0,0.1-0.1,0.1c0.1-0.1,0.1-0.1,0,0c-0.1,0.1-0.2,0.2-0.3,0.3
			c0,0-0.2,0.2-0.1,0.1c0,0-0.1,0.1-0.1,0.1c-0.1,0.1-0.3,0.2-0.4,0.2c0,0-0.3,0.1-0.1,0c-0.1,0-0.2,0.1-0.3,0.1
			c-0.2,0-0.3,0.1-0.5,0.1c-0.2,0,0.2,0,0,0c-0.1,0-0.2,0-0.3,0c-0.1,0-0.3,0-0.4,0c-0.2,0,0,0,0,0c-0.1,0-0.2,0-0.3-0.1
			c-0.1,0-0.1,0-0.2-0.1c0,0-0.3-0.1-0.1,0c-0.1-0.1-0.3-0.1-0.4-0.2c0,0-0.3-0.2-0.1-0.1c0,0-0.1-0.1-0.1-0.1
			c-0.1-0.1-0.3-0.3-0.4-0.4c-0.2-0.2,0.1,0.2-0.1-0.1c0-0.1-0.1-0.1-0.1-0.2c-0.1-0.1-0.2-0.3-0.2-0.4c-0.1-0.2,0.1,0.2,0-0.1
			c0-0.1,0-0.1-0.1-0.2c0-0.1,0-0.1-0.1-0.2c0,0-0.1-0.3-0.1-0.2c0,0.1,0-0.1,0-0.1c0-0.1,0-0.2,0-0.3c0-0.1,0-0.1,0-0.2
			c0-0.1,0-0.1,0,0c0,0,0-0.1,0-0.1c0-0.1,0-0.1,0.1-0.2c0-0.1,0-0.1,0.1-0.2c0-0.1,0-0.1,0-0.1c-0.1,0.1,0.1-0.2,0.1-0.1
			c0.1-0.1,0.1-0.2,0.2-0.3c0.1-0.2,0.4-0.4,0.6-0.5c0.1,0,0.1-0.1,0.2-0.1c-0.2,0.1,0.1,0,0.1,0c0.1,0,0.2,0,0,0c0.1,0,0.2,0,0.4,0
			c0.5,0,1-0.5,1-1C28.4,9.8,27.9,9.4,27.4,9.3L27.4,9.3z"/>
	</g>
</g>
<g>
	<g>
		<path d="M39.5,13.9c3.1-0.2,6.1-0.4,9.2-0.5c0.5,0,1-0.4,1-1c0-0.5-0.5-1-1-1c-3.1,0.2-6.1,0.4-9.2,0.5c-0.5,0-1,0.4-1,1
			C38.5,13.4,38.9,13.9,39.5,13.9L39.5,13.9z"/>
	</g>
</g>
<g>
	<g>
		<path d="M58,10c-0.8-1.1-2-0.6-2.8,0.3c-0.6,0.7-1,1.5-1.1,2.4c-0.3,1.9,0.5,3.7,2.2,4.7c1.6,0.9,3.6,0.7,4.9-0.6
			c1.3-1.3,1.6-3.4,0.5-4.9c-0.6-0.8-1.4-1.7-2.2-2.2c-1.1-0.7-2.6-0.4-3,0.9c-0.1,0.5,0.2,1.1,0.7,1.2c0.5,0.1,1.1-0.2,1.2-0.7
			c0,0-0.2,0.2-0.1,0.1c0.1-0.1-0.1,0-0.1,0.1c0,0,0,0,0,0c0.1,0,0.1,0,0,0c0,0,0.3,0,0,0c0.2,0,0.3,0.1,0.5,0.3
			c0.2,0.2,0.5,0.4,0.7,0.7c0.1,0.1,0.2,0.2,0.3,0.3c0.1,0.1,0.1,0.1,0.2,0.2c0,0.1,0,0.1,0,0c0,0,0.1,0.1,0.1,0.1
			c0.1,0.1,0.2,0.3,0.2,0.4c0,0,0.1,0.2,0,0.1c0,0.1,0,0.1,0.1,0.2c0,0.1,0,0.1,0.1,0.2c0,0,0,0.3,0,0.1c0-0.1,0,0.1,0,0.1
			c0,0.1,0,0.2,0,0.3c0,0.1,0,0.2,0,0c0,0.1,0,0.1,0,0.2c0,0.1-0.1,0.2-0.1,0.3c0.1-0.2,0,0,0,0c0,0.1-0.1,0.1-0.1,0.2
			c0,0.1-0.1,0.1-0.1,0.2c0,0-0.2,0.2-0.1,0.1c0.1-0.1-0.1,0.1-0.1,0.1c0,0-0.1,0.1-0.1,0.1c0,0-0.3,0.2-0.1,0.1
			c-0.1,0.1-0.2,0.1-0.3,0.2c0,0-0.2,0.1,0,0c-0.1,0-0.2,0.1-0.3,0.1c-0.1,0-0.4,0.1-0.2,0.1c-0.1,0-0.3,0-0.4,0c-0.1,0-0.1,0-0.2,0
			c-0.2,0,0.2,0.1-0.1,0c-0.2,0-0.3-0.1-0.4-0.1c-0.1,0-0.1,0-0.2-0.1c0.2,0.1,0,0,0,0c-0.1-0.1-0.2-0.1-0.4-0.2
			c-0.1,0-0.1-0.1-0.2-0.1c0,0,0.1,0.1,0,0c-0.1-0.1-0.2-0.2-0.3-0.3c0,0-0.1-0.1,0,0c0,0-0.1-0.1-0.1-0.2c-0.1-0.1-0.1-0.2-0.2-0.4
			c-0.1-0.2,0.1,0.2,0-0.1c0-0.1,0-0.1-0.1-0.2c0-0.2-0.1-0.3-0.1-0.5c0,0.2,0,0,0,0c0-0.1,0-0.2,0-0.3c0-0.1,0-0.1,0-0.2
			c0,0,0-0.3,0-0.1c0-0.2,0.1-0.3,0.1-0.5c0-0.1,0-0.1,0.1-0.2c0,0,0.1-0.3,0-0.1c0.1-0.1,0.1-0.3,0.2-0.4c0-0.1,0.1-0.1,0.1-0.2
			c0,0,0.1-0.1,0.1-0.1c0,0.1,0,0.1,0,0c0,0,0.1-0.1,0.1-0.1c0,0,0.2-0.2,0.1-0.1c-0.1,0.1,0.1,0,0.1,0c0.1,0,0,0,0,0
			c-0.3,0-0.5-0.1-0.7-0.3c0.3,0.4,0.9,0.6,1.4,0.4C58.1,11.1,58.3,10.4,58,10L58,10z"/>
	</g>
</g>
<g>
	<g>
		<path d="M68.9,13.9c2.6,0.2,5.3,0.3,7.9,0.5c0.5,0,1-0.5,1-1c0-0.6-0.5-1-1-1c-2.6-0.2-5.3-0.3-7.9-0.5c-0.5,0-1,0.5-1,1
			C67.9,13.5,68.4,13.9,68.9,13.9L68.9,13.9z"/>
	</g>
</g>
<g>
	<g>
		<path d="M84.7,9.4c-1.5,0.7-2.5,2.4-2.4,4.1c0.2,1.8,1.4,3.4,3.2,3.8c1.7,0.4,3.8,0,5.1-1.1c1.3-1.1,1.4-3.1,0.4-4.5
			c-1.1-1.7-3.3-2.2-5.2-1.7c-0.5,0.1-0.8,0.7-0.7,1.2c0.1,0.5,0.7,0.8,1.2,0.7c1-0.2,2.1-0.1,2.8,0.6c0,0,0.1,0.1,0.1,0.1
			c-0.1-0.1,0,0,0,0c0.1,0.1,0.1,0.2,0.2,0.3c0.1,0.2,0,0.1,0,0c0,0.1,0,0.1,0.1,0.2c0,0.1,0,0.1,0.1,0.2c0,0,0.1,0.3,0,0.1
			c0,0.1,0,0.3,0,0.4c0,0.2,0,0.1,0,0c0,0.1,0,0.1,0,0.2c0,0-0.1,0.4-0.1,0.2c0,0.1-0.1,0.1-0.1,0.2c-0.1,0.2,0.1,0-0.1,0.1
			c-0.7,0.7-2,1-3.1,0.9c0.1,0,0.1,0-0.1,0c-0.1,0-0.1,0-0.2,0c-0.1,0-0.3-0.1-0.4-0.1c-0.1-0.1-0.4-0.2-0.5-0.3
			c-0.4-0.4-0.6-0.7-0.7-1.2c0-0.1,0-0.1,0-0.2c0-0.1,0-0.1,0,0c0,0,0-0.1,0-0.1c0-0.2,0-0.3,0-0.5c0,0.2,0,0,0,0
			c0-0.1,0-0.2,0.1-0.3c0-0.1,0-0.1,0.1-0.2c0,0.1,0,0,0-0.1c0.3-0.6,0.6-0.9,1.2-1.1c0.5-0.2,0.6-0.9,0.4-1.4
			C85.7,9.3,85.1,9.2,84.7,9.4L84.7,9.4z"/>
	</g>
</g>
<g>
	<g>
		<path d="M97.4,14.3c2.7,0,5.4,0,8.2,0c1.3,0,1.3-2,0-2c-2.7,0-5.4,0-8.2,0C96.1,12.3,96.1,14.3,97.4,14.3L97.4,14.3z"/>
	</g>
</g>
<g>
	<g>
		<path d="M114.7,9.3c-1.8,0.7-3.1,2.3-3.3,4.3c-0.2,1.8,0.9,3.7,2.4,4.6c1.7,1,3.7,0.7,5.2-0.5c1.4-1.1,2.1-3.1,1.5-4.8
			c-0.8-2-2.8-3.3-5-3c-0.5,0.1-0.8,0.7-0.7,1.2c0.2,0.6,0.7,0.8,1.2,0.7c-0.2,0,0.1,0,0.1,0c0.1,0,0.1,0,0.2,0c0.1,0,0.2,0,0.3,0
			c-0.1,0-0.1,0,0,0c0.4,0.1,0.5,0.1,0.8,0.3c0.1,0,0.1,0.1,0.2,0.1c0,0,0.2,0.1,0.1,0.1c0.1,0.1,0.2,0.2,0.3,0.3
			c0,0,0.1,0.1,0.1,0.2c0,0,0.2,0.2,0.1,0.1c0,0,0.2,0.3,0.2,0.4c0.1,0.2,0.2,0.4,0.2,0.7c0.1,0.3,0-0.1,0,0.1c0,0.1,0,0.2,0,0.3
			c0,0.1,0,0.1,0,0.2c0,0.2,0,0,0,0.2c-0.2,0.6-0.3,1-0.8,1.4c-0.4,0.4-0.8,0.6-1.4,0.8c-0.4,0.1-1,0-1.4-0.1
			c-0.2-0.1-0.5-0.3-0.6-0.4c-0.2-0.2-0.5-0.4-0.6-0.6c-0.1-0.1-0.2-0.3-0.2-0.4c0,0-0.2-0.4-0.1-0.2c-0.1-0.3-0.2-0.6-0.2-0.9
			c-0.1-1.2,0.8-2.5,1.9-2.9c0.5-0.2,0.8-0.7,0.7-1.2C115.8,9.5,115.2,9.1,114.7,9.3L114.7,9.3z"/>
	</g>
</g>
<g>
	<g>
		<path d="M125.8,14.6c3.2,0,6.5,0,9.7,0c1.3,0,1.3-2,0-2c-3.2,0-6.5,0-9.7,0C124.5,12.6,124.5,14.6,125.8,14.6L125.8,14.6z"/>
	</g>
</g>
<g>
	<g>
		<path d="M142.4,9c-1.9,0.4-2.4,2.6-2.4,4.2c0,1,0.1,1.9,0.6,2.8c0.4,0.9,1.2,1.5,2,1.8c1.6,0.6,3.6,0.1,4.7-1.1
			c1.2-1.4,1.6-3.4,0.9-5.1c-0.4-1.1-1.1-2-2.2-2.4c-1-0.3-2.2-0.1-3.1,0.4c-0.4,0.3-0.7,0.9-0.4,1.4c0.3,0.4,0.9,0.7,1.4,0.4
			c0.1,0,0.2-0.1,0.2-0.1c0.2-0.1-0.1,0,0,0c0.2-0.1,0.3-0.1,0.5-0.1c0,0,0.2,0,0,0c0.1,0,0.2,0,0.3,0c0.1,0,0.1,0,0.2,0
			c0.1,0,0.1,0,0,0c0.1,0,0.1,0,0.2,0c0.1,0,0.1,0,0.2,0c0.3,0.1-0.1-0.1,0.1,0c0,0,0.1,0.1,0.2,0.1c0.2,0.1-0.1-0.1,0.1,0.1
			c0.1,0.1,0.2,0.2,0.2,0.3c0,0.1,0.1,0.1,0.1,0.2c0,0,0.1,0.3,0.1,0.2c0.1,0.3,0.2,0.6,0.2,0.9c0.1,0.3,0-0.2,0,0.1
			c0,0.1,0,0.1,0,0.2c0,0.2,0,0.4,0,0.5c0,0,0,0.3,0,0.1c0,0.1,0,0.1,0,0.2c0,0.2-0.1,0.3-0.1,0.5c0,0.1,0,0.1-0.1,0.2
			c-0.1,0.3,0.1-0.2,0,0.1c-0.1,0.1-0.2,0.3-0.2,0.4c0,0-0.1,0.2,0,0.1c-0.1,0.1-0.1,0.1-0.2,0.2c-0.1,0.1-0.2,0.2-0.3,0.3
			c0.1-0.1,0,0,0,0c-0.1,0-0.1,0.1-0.2,0.1c-0.1,0-0.1,0.1-0.2,0.1c-0.1,0,0,0,0,0c-0.1,0-0.1,0-0.2,0.1c-0.1,0-0.3,0.1-0.4,0.1
			c0,0-0.3,0.1-0.1,0c0.2,0-0.1,0-0.1,0c-0.1,0-0.3,0-0.4,0c-0.1,0-0.2,0-0.2,0c0.2,0,0,0-0.1,0c-0.1,0-0.3-0.1-0.4-0.1
			c-0.2-0.1,0.2,0.1-0.1,0c0,0-0.1-0.1-0.1-0.1c-0.2-0.1-0.4-0.3-0.5-0.4c-0.4-0.5-0.5-1.1-0.5-1.7c0-0.4,0-0.8,0-1.2
			c0-0.1,0-0.1,0-0.2c0,0.3,0-0.1,0-0.2c0-0.2,0.1-0.3,0.1-0.5c0-0.1,0-0.1,0.1-0.2c0-0.1,0-0.1,0,0c0,0,0-0.1,0.1-0.1
			c0,0,0.1-0.1,0.1-0.1c0,0,0.2-0.3,0.1-0.2c-0.1,0.1,0.1-0.1,0.1-0.1c0,0,0.1-0.1,0.1-0.1c-0.1,0.1-0.1,0.1,0,0
			c0,0,0.1-0.1,0.2-0.1c-0.2,0.1,0.1,0,0.1,0c0.5-0.1,0.8-0.7,0.7-1.2C143.4,9.1,142.9,8.9,142.4,9L142.4,9z"/>
	</g>
</g>
<g>
	<g>
		<path d="M156,13.7c2.7-0.5,5.4-0.7,8.2-0.7c1.3,0,1.3-2,0-2c-2.9,0-5.8,0.3-8.7,0.8c-0.5,0.1-0.8,0.7-0.7,1.2
			C155,13.6,155.5,13.8,156,13.7L156,13.7z"/>
	</g>
</g>
<g>
	<g>
		<path d="M172.1,8.9c-1.6,0.7-2.7,2.1-2.8,3.9c-0.1,1.6,0.9,3.2,2.4,3.9c1.6,0.7,3.4,0.6,4.7-0.7c1.1-1.1,1.7-2.9,1.2-4.5
			c-0.7-1.9-2.8-3.2-4.7-2.5c-0.5,0.2-0.9,0.7-0.7,1.2c0.2,0.5,0.7,0.9,1.2,0.7c0.1,0,0.2-0.1,0.2-0.1c0,0,0.3,0,0.1,0
			c-0.2,0,0.1,0,0.1,0c0.1,0,0.2,0,0.2,0c0.1,0,0.2,0,0,0c0.1,0,0.2,0,0.2,0.1c0.1,0,0.1,0,0.2,0c0.1,0,0.1,0,0.2,0.1
			c-0.1,0-0.1,0,0,0c0.1,0.1,0.2,0.1,0.4,0.2c0,0,0.2,0.2,0.1,0.1c-0.1-0.1,0.1,0.1,0.1,0.1c0.1,0.1,0.2,0.2,0.3,0.3
			c-0.1-0.2,0,0,0,0.1c0,0.1,0.1,0.1,0.1,0.2c0,0,0.1,0.3,0,0.1c0,0,0,0.1,0.1,0.2c0,0.1,0,0.2,0.1,0.2c0,0,0.1,0.3,0,0.1
			c0-0.2,0,0.1,0,0.1c0,0.1,0,0.1,0,0.2c0,0.1,0,0.1,0,0.2c0,0.1,0,0.1,0,0.2c0-0.1,0-0.1,0-0.1c0,0.1-0.1,0.3-0.1,0.4
			c0,0.1,0,0.1,0,0.2c0,0-0.1,0.3,0,0.1c-0.1,0.1-0.1,0.2-0.2,0.4c0,0.1-0.1,0.1-0.1,0.2c0,0-0.2,0.3-0.1,0.1
			c-0.1,0.1-0.2,0.2-0.3,0.3c-0.1,0.1-0.1,0.1-0.2,0.2c0,0,0.2-0.1,0,0c-0.1,0.1-0.2,0.1-0.3,0.2c0,0-0.3,0.1-0.1,0
			c-0.1,0-0.1,0.1-0.2,0.1c-0.1,0-0.2,0-0.2,0.1c0,0-0.3,0-0.1,0c0.2,0-0.1,0-0.1,0c-0.1,0-0.2,0-0.2,0c-0.1,0-0.1,0-0.2,0
			c-0.3,0,0.2,0-0.1,0c-0.2,0-0.3-0.1-0.5-0.1c-0.1,0-0.1,0-0.2-0.1c-0.2-0.1,0.2,0.1-0.1,0c-0.1-0.1-0.2-0.1-0.3-0.2
			c-0.1,0-0.1-0.1-0.2-0.1c0,0-0.1-0.1,0,0c-0.1-0.1-0.2-0.2-0.3-0.3c0,0-0.2-0.2,0,0c0,0-0.1-0.1-0.1-0.1c-0.1-0.1-0.1-0.3-0.2-0.4
			c-0.1-0.1,0.1,0.2,0,0c0-0.1,0-0.1-0.1-0.2c0-0.1,0-0.1,0-0.2c0-0.1,0-0.1,0-0.2c0,0.1,0,0.1,0,0.1c0-0.1,0-0.3,0-0.5
			c0-0.1,0-0.2,0,0c0-0.1,0-0.2,0.1-0.3c0-0.2,0.1-0.3,0.1-0.5c0-0.1-0.1,0.2,0,0c0-0.1,0.1-0.2,0.1-0.2c0-0.1,0.1-0.1,0.1-0.2
			c0,0,0.2-0.3,0.1-0.2c-0.1,0.1,0.1-0.1,0.1-0.1c0.1-0.1,0.1-0.1,0.2-0.2c0,0,0.1-0.1,0.1-0.1c-0.2,0.2,0,0,0.1-0.1
			c0.1,0,0.1-0.1,0.2-0.1c0,0,0.4-0.2,0.1-0.1c0.5-0.2,0.9-0.7,0.7-1.2C173.1,9.1,172.6,8.7,172.1,8.9L172.1,8.9z"/>
	</g>
</g>
<g>
	<g>
		<path d="M183.7,13.4c3,0.1,6,0.2,9,0.1c1.3,0,1.3-2,0-2c-3,0.1-6,0.1-9-0.1c-0.5,0-1,0.5-1,1C182.7,13,183.1,13.4,183.7,13.4
			L183.7,13.4z"/>
	</g>
</g>
<g>
	<g>
		<path d="M202.7,9.1c-2.1-0.4-3.8,1.3-4.4,3.2c-0.3,1-0.5,2.3-0.1,3.3c0.3,1,0.9,1.7,1.8,2.3c1.6,1.1,3.7,1.2,5.3,0.1
			c1.7-1.1,2.7-3.1,2.4-5.1c-0.3-2.3-2.3-4.3-4.8-4.1c-0.5,0-1,0.4-1,1c0,0.5,0.5,1,1,1c1.2-0.1,2.4,0.7,2.7,1.9
			c0.4,1.3-0.1,2.5-1,3.4c-0.9,0.8-2.1,1-3.1,0.5c-0.5-0.2-1-0.6-1.2-1c-0.3-0.5-0.5-1.2-0.3-1.9c0.1-0.7,0.4-1.4,0.8-2
			c0.2-0.3,0.4-0.5,0.8-0.6c0.2-0.1,0.5-0.1,0.6-0.1c0.5,0.1,1.1-0.1,1.2-0.7C203.5,9.8,203.2,9.2,202.7,9.1L202.7,9.1z"/>
	</g>
</g>
<g>
	<g>
		<path d="M213.4,14.1c2.4-0.1,4.7-0.1,7.1,0.1c0.5,0,1-0.5,1-1c0-0.6-0.5-1-1-1c-2.4-0.2-4.7-0.2-7.1-0.1c-0.5,0-1,0.4-1,1
			C212.4,13.6,212.9,14.1,213.4,14.1L213.4,14.1z"/>
	</g>
</g>
<g>
	<g>
		<path d="M231.3,8.6c-2.2,0-3.5,2.1-4.1,3.9c-0.3,0.9-0.4,2-0.2,2.9c0.3,1.1,1.1,2,2.2,2.3c4,1.3,8.6-3,7.1-7
			c-0.4-1.2-1.2-2.1-2.4-2.4c-1.1-0.4-2.4-0.1-3.3,0.7c-0.9,0.9,0.5,2.3,1.4,1.4c0,0,0.2-0.2,0.1-0.1c0.1,0,0.1-0.1,0.2-0.1
			c0.2-0.1-0.1,0,0.1,0c0.1,0,0.1,0,0.2-0.1c0.3-0.1-0.1,0,0.1,0c0.1,0,0.2,0,0.2,0c0,0,0.3,0,0.2,0c-0.1,0,0.2,0.1,0.3,0.1
			c0.1,0,0.1,0,0.2,0.1c-0.2-0.1,0.1,0.1,0.1,0.1c0.1,0,0.1,0.1,0.2,0.1c0.3,0.2-0.1-0.1,0.1,0.1c0.1,0.1,0.2,0.2,0.3,0.3
			c0.1,0.1,0.1,0.2,0.1,0.2c0,0,0.1,0.3,0.1,0.2c0.3,0.7,0.3,1.3,0.1,2c-0.2,0.6-0.5,1.1-0.8,1.5c-0.5,0.5-0.9,0.8-1.5,1.1
			c-0.2,0.1-0.6,0.2-0.9,0.2c-0.3,0.1,0.2,0-0.1,0c-0.1,0-0.1,0-0.2,0c-0.2,0-0.4,0-0.6,0c-0.3,0-0.6-0.1-0.9-0.3
			c-0.1-0.1-0.2-0.1-0.3-0.3c0,0,0.1,0.1,0,0c0-0.1-0.1-0.2-0.1-0.3c0.1,0.2,0-0.1,0-0.1c0-0.1,0-0.1,0-0.2c-0.1-0.3,0,0.2,0-0.1
			c0-0.1,0-0.1,0-0.2c0-0.4,0-0.6,0.1-1c0.2-0.8,0.4-1.4,0.9-2.1c0.1-0.1,0.1-0.1,0.2-0.3c0.1-0.2,0.3-0.3,0.3-0.3
			c0.1,0,0.1-0.1,0.2-0.1c0,0,0.1,0,0.1-0.1c-0.1,0-0.1,0,0,0c0.1,0,0.1,0,0.2-0.1c0.1,0,0.1,0,0,0c0.1,0,0.1,0,0.2,0
			C232.6,10.5,232.6,8.5,231.3,8.6L231.3,8.6z"/>
	</g>
</g>
<g>
	<g>
		<path d="M241.6,14c2.6,0.2,5.3,0.3,7.9,0.1c0.5,0,1-0.4,1-1c0-0.5-0.5-1-1-1c-2.6,0.2-5.3,0.2-7.9-0.1c-0.5,0-1,0.5-1,1
			C240.6,13.6,241.1,13.9,241.6,14L241.6,14z"/>
	</g>
</g>
</svg>
