<?xml version="1.0" encoding="utf-8"?>
<!-- Generator: Adobe Illustrator 25.2.3, SVG Export Plug-In . SVG Version: 6.00 Build 0)  -->
<svg version="1.1" id="레이어_1" xmlns="http://www.w3.org/2000/svg" xmlns:xlink="http://www.w3.org/1999/xlink" x="0px"
	 y="0px" viewBox="0 0 256 160" style="enable-background:new 0 0 256 160;" xml:space="preserve">
<style type="text/css">
	.st0{fill:#FFFFFF;stroke:#000000;stroke-width:0.8;stroke-miterlimit:10;}
	.st1{stroke:#000000;stroke-width:0.8;stroke-miterlimit:10;}
</style>
<g>
	<path class="st0" d="M13.5,12.5C6.8,18,5.1,29.3,10.6,36.1C4.3,44.8,4.7,57.7,11.5,66c-7.7,8.2-6.4,23,2.4,29.9
		c-6.9,7.9-9.5,19.4-6.5,29.4c0.9,3.1,3.2,6.6,6.4,6.2c-5.5,1.5-8.7,8.5-6.2,13.7c2.5,5.1,9.9,7,14.5,3.7c1,4.2,5.7,6.7,10,6.4
		s8.2-2.9,11.2-6c2.3,3.6,7,5,11.2,4.5s8.1-2.5,11.9-4.4c4.8,5.7,14.9,5.7,19.7,0c0.8,2.1,2.9,3.6,5.2,3.6c1.9,0,3.6-1,5.4-1.5
		c5.9-1.8,12.1,1,18,2.6s13.6,1.5,16.7-3.8c2.1,3.1,6.4,4.1,10.1,3.4s6.9-2.9,10-4.9c8,6.8,20.4,7.9,29.4,2.5
		c6.1,4.9,16.1,3.7,21-2.4c4.2,5.7,13.8,6.1,18.5,0.8c4.8,4.1,12.5,4.1,17.3,0c0.4,2.8,4.9,2.9,6.6,0.7c1.7-2.3,1.3-5.4,0.9-8.2
		c-0.3-2.4-0.7-4.7-1-7.1c4.3-0.2,5.9-5.9,5.4-10.1c-0.7-5.1-2.7-10-5.8-14.1c3.4-0.3,4.6-4.7,4.4-8.1c-0.3-5.5-2-10.8-4.9-15.5
		c8-3,10.1-15.4,3.6-21c5.2-8.2,2.8-20.3-5.2-25.8c3.7-2.2,4.3-7.2,4.6-11.5c0.3-4.4,0.5-8.9-0.7-13.1s-4.2-8.2-8.4-9.4
		c-5.6-1.6-11.5,2-17.3,1.6c-2.3-0.2-4.5-0.9-6.8-1.3c-6-0.9-12.5,1.6-16.3,6.4C188,4.8,173.2,3.4,163,10c-1.9-3.7-6-6.2-10.1-6.2
		s-8.2,2.4-10.2,6.1c-6.1-5.1-16.3-4-21.2,2.3c-3.6-5.3-9.9-8.6-16.3-8.6s-12.7,3.3-16.3,8.6c0.1-4.4-5.1-7.6-9.5-6.8
		s-7.7,4.4-9.9,8.3C66,9.2,60.2,6.6,54.6,7c-5.7,0.4-11.1,3.7-13.9,8.7c-0.2-3.7-4.4-6.3-8.1-6.1c-3.7,0.2-7.1,2.4-10,4.7
		C21.6,10.7,15,9.2,13.5,12.5"/>
	<g>
		<path class="st1" d="M12.9,11.9C5.8,17.8,4.2,29.4,10,36.7c0-0.4-0.1-0.7-0.1-1.1c-6.5,9.2-6,22.3,1.1,31c0-0.4,0-0.8,0-1.3
			C2.9,74,4,89.1,13.3,96.4c0-0.4,0-0.8,0-1.3c-5,5.7-7.8,13.1-8,20.7c-0.1,3.6,0.3,7.5,1.7,10.9c1.1,2.8,3.4,5.8,6.8,5.6
			c-0.1-0.6-0.2-1.2-0.2-1.8c-6,1.8-9.5,9.3-6.7,15c2.7,5.6,10.7,7.5,15.8,4c-0.4-0.2-0.9-0.4-1.3-0.5c1.2,4.2,5.3,6.8,9.5,7.1
			c5.1,0.3,9.7-2.8,13.2-6.2c-0.5-0.1-0.9-0.1-1.4-0.2c2.3,3.5,6.3,5.1,10.4,5.1c5,0,9.6-2.4,13.9-4.6c-0.4,0-0.7-0.1-1.1-0.1
			c5.3,6.1,15.8,6.1,21,0c-0.5-0.1-1-0.3-1.5-0.4c1.2,2.9,4,4.6,7.1,4.1c2-0.3,3.7-1.3,5.6-1.7c2.1-0.4,4.2-0.3,6.3,0.1
			c6.8,1.2,13.1,4.7,20.2,3.5c3.2-0.5,6-2.1,7.7-4.9c-0.5,0-1,0-1.6,0c2.1,3,5.8,4.3,9.4,4c4.4-0.3,8.3-2.9,11.9-5.3
			c-0.4,0-0.7-0.1-1.1-0.1c8.4,7.1,21,8.2,30.5,2.6c-0.3,0-0.6,0-0.9,0c6.5,5,16.8,3.9,22.1-2.5c-0.5-0.1-0.9-0.1-1.4-0.2
			c4.6,6.1,14.7,6.8,19.9,1c-0.4,0-0.8,0-1.3,0c5.3,4.4,13.3,4.4,18.5,0c-0.5-0.1-1-0.3-1.5-0.4c0.8,3.8,6.2,3.5,8.2,1
			c1.5-2,1.6-4.6,1.4-7c-0.3-3-0.8-6-1.3-9c-0.3,0.4-0.6,0.8-0.9,1.1c4.6-0.3,6.4-5.3,6.4-9.3c0-5.7-2.6-11.7-6-16.2
			c-0.3,0.5-0.5,0.9-0.8,1.4c4.2-0.5,5.4-5.2,5.3-8.8c-0.2-5.7-2.1-11.2-5.1-16.1c-0.2,0.4-0.4,0.9-0.5,1.3
			c8.6-3.4,11.1-16.3,4-22.5c0,0.4,0.1,0.7,0.1,1.1c5.4-8.8,2.8-21.1-5.5-27.1c0,0.5,0,1,0,1.6c4.4-2.8,4.8-8.5,5.1-13.2
			c0.4-6,0.4-12.5-3.2-17.6c-1.4-2-3.3-3.6-5.5-4.5c-2.7-1.1-5.6-0.9-8.4-0.3c-3,0.6-5.9,1.5-8.9,1.6c-3.2,0.1-6.2-1.2-9.3-1.5
			c-5.9-0.4-11.9,2.2-15.7,6.8c0.4,0,0.8,0,1.3,0c-9.3-8.7-24.2-10.2-34.9-3.4c0.4,0.1,0.8,0.2,1.2,0.3c-2.1-3.9-6.4-6.6-10.9-6.6
			s-8.8,2.6-11,6.6c0.5-0.1,0.9-0.1,1.4-0.2c-6.5-5.4-17.1-4.4-22.4,2.3c0.5,0.1,0.9,0.1,1.4,0.2c-3.9-5.5-10.3-9.1-17.1-9.1
			c-6.8,0-13.2,3.5-17.1,9c0.6,0.2,1.1,0.3,1.7,0.5c-0.1-4.7-4.7-7.9-9.1-7.8c-5.4,0.1-9.5,4.6-11.9,8.9c0.5-0.1,0.9-0.1,1.4-0.2
			c-3.8-4.8-10-7.5-16.1-6.9c-5.8,0.6-11.1,4-14.1,9.1c0.6,0.2,1.1,0.3,1.7,0.5C41.4,12.1,38,9.5,34.4,9c-4.6-0.6-8.8,2.2-12.3,4.9
			c0.5,0.1,1,0.3,1.5,0.4c-1.1-4.1-8.4-6.3-10.5-2c-0.5,1,1,1.9,1.6,0.9c1.4-2.9,6.5-1.1,7.2,1.5c0.2,0.7,1,0.8,1.5,0.4
			c2.9-2.2,6.3-4.6,10-4.5c2.9,0.1,6.3,2,6.5,5.2c0.1,0.9,1.2,1.3,1.7,0.5c2.7-4.6,7.6-7.8,12.9-8.2c5.6-0.4,11,2.1,14.5,6.4
			c0.4,0.5,1.2,0.3,1.4-0.2c2.1-3.6,5.3-7.4,9.7-8c3.6-0.4,7.9,2,8,6c0,0.9,1.2,1.2,1.7,0.5c3.5-5,9.4-8.2,15.6-8.2
			c6.1,0,12.1,3.2,15.5,8.2c0.3,0.4,1,0.7,1.4,0.2c4.7-5.9,14-7,19.9-2.3c0.4,0.4,1.1,0.4,1.4-0.2c1.9-3.4,5.5-5.7,9.4-5.7
			s7.5,2.3,9.4,5.7c0.2,0.4,0.8,0.6,1.2,0.3c10-6.4,24.1-5.1,32.8,3.1c0.3,0.3,1,0.4,1.3,0c3.1-3.8,7.8-6.1,12.7-6.3
			c2.8-0.1,5.4,0.8,8.2,1.3c2.6,0.4,5.1,0.1,7.7-0.4c5.1-1.1,10.5-2.8,14.8,1.1c4.1,3.8,4.9,9.5,4.8,14.8c-0.1,2.9-0.1,5.9-0.7,8.7
			c-0.5,2.6-1.4,5.2-3.7,6.7c-0.6,0.4-0.6,1.2,0,1.6c7.6,5.4,9.7,16.7,4.9,24.6c-0.2,0.3-0.2,0.8,0.1,1.1c5.9,5.2,4.2,16.5-3.2,19.5
			c-0.5,0.2-0.9,0.8-0.5,1.3c2.5,4.1,4.1,8.7,4.7,13.5c0.3,2.7,0.4,8.3-3.3,8.7c-0.6,0.1-1.2,0.7-0.8,1.4c3,4,5.3,9,5.7,14.1
			c0.3,3.1-0.5,8.5-4.5,8.8c-0.6,0-1,0.5-0.9,1.1c0.3,2.2,0.6,4.4,1,6.6c0.3,1.9,0.6,4,0.1,6c-0.4,1.6-1.3,2.8-3,3.1
			c-1.2,0.2-2.6-0.2-2.9-1.5c-0.1-0.7-1-0.8-1.5-0.4c-4.5,3.7-11.5,3.7-16,0c-0.4-0.3-0.9-0.4-1.3,0c-4.4,4.8-13.1,4.6-17.1-0.6
			c-0.3-0.4-1-0.7-1.4-0.2c-4.8,5.8-13.9,6.8-19.9,2.2c-0.2-0.2-0.7-0.1-0.9,0c-8.8,5.2-20.5,4.2-28.3-2.4c-0.3-0.2-0.7-0.4-1.1-0.1
			c-3.1,2.1-6.4,4.3-10.1,4.9c-3.1,0.5-6.8-0.3-8.7-3c-0.4-0.5-1.2-0.6-1.6,0c-4,6.6-13.5,4.1-19.4,2.3c-4.1-1.3-8.5-2.6-12.8-1.9
			c-2.2,0.3-4.2,1.6-6.4,1.9c-2.1,0.3-4.2-0.8-5-2.8c-0.2-0.6-1-1-1.5-0.4c-4.6,5.4-13.8,5.4-18.4,0c-0.3-0.3-0.8-0.3-1.1-0.1
			c-3.8,2-7.9,4.2-12.3,4.4c-3.6,0.2-7.5-1-9.5-4.2c-0.3-0.5-1-0.6-1.4-0.2c-2.9,3-6.8,5.7-11.2,5.7c-3.7,0-7.5-2.1-8.5-5.8
			c-0.1-0.5-0.8-0.9-1.3-0.5C17.6,151,11,149.6,8.6,145c-2.5-4.7,0.5-11.1,5.5-12.6c0.9-0.3,0.8-1.8-0.2-1.8c-3.2,0.2-4.9-3.4-5.6-6
			c-0.9-3.2-1.2-6.6-1-9.9c0.4-6.7,3-13.2,7.4-18.3c0.3-0.3,0.4-1,0-1.3c-8.5-6.7-9.8-20.6-2.4-28.6c0.4-0.4,0.3-0.9,0-1.3
			c-6.7-8-7-20.2-0.9-28.7c0.2-0.4,0.1-0.8-0.1-1.1c-5.3-6.6-3.4-17,2.8-22.3C15,12.4,13.7,11.1,12.9,11.9L12.9,11.9z"/>
	</g>
</g>
</svg>
