<?xml version="1.0" encoding="utf-8"?>
<!-- Generator: Adobe Illustrator 25.2.3, SVG Export Plug-In . SVG Version: 6.00 Build 0)  -->
<svg version="1.1" id="레이어_1" xmlns="http://www.w3.org/2000/svg" xmlns:xlink="http://www.w3.org/1999/xlink" x="0px"
	 y="0px" viewBox="0 0 256 160" style="enable-background:new 0 0 256 160;" xml:space="preserve">
<style type="text/css">
	.st0{fill:#FFFFFF;}
</style>
<g>
	<path class="st0" d="M7.5,7.5c-1.4,47.3-0.1,98.8,2.4,146c19.4,1.4,38.9,1.7,58.3,0.9c29.1-1.1,58.2-4.6,87.2-3.1
		c10.9,0.6,21.7,1.9,32.6,1.9c19.5,0,39.1-4.1,58.4-1.5c2.6-11.9,3.7-24.2,3.5-36.4c-0.1-7.8-0.9-15.6-1.4-23.4
		c-1.8-28-0.7-56.1,0.4-84.1c-15.4-2.5-31.2-2.3-46.8-2C137.8,6.6,71.7,6.6,7.5,7.5"/>
	<g>
		<path d="M6.3,7.5C5.8,26.4,5.6,45.4,5.8,64.3c0.2,19.2,0.7,38.4,1.4,57.6c0.4,10.5,0.9,21.1,1.4,31.6c0,0.7,0.5,1.2,1.2,1.2
			c15.5,1.1,30.9,1.5,46.4,1.2c15.5-0.3,31.1-1.4,46.6-2.3c15.3-1,30.7-1.8,46.1-1.4c15.5,0.4,30.8,2.6,46.3,2
			c17-0.7,34.1-3.6,51.1-1.3c0.5,0.1,1.1-0.4,1.2-0.9c1.9-9,3.1-18.1,3.4-27.3c0.4-9.3-0.3-18.5-0.9-27.7c-1.4-19-1.5-38.1-1.1-57.1
			c0.3-10.7,0.7-21.4,1.1-32.1c0-0.5-0.4-1.1-0.9-1.2c-15.6-2.5-31.4-2.3-47.1-2.1c-15.6,0.2-31.2,0.4-46.9,0.5
			c-31.6,0.3-63.3,0.5-94.9,0.7C42.7,5.9,25.1,6.1,7.5,6.3C6,6.3,6,8.7,7.5,8.7C38.9,8.3,70.2,8,101.6,7.8
			C133,7.6,164.4,7.4,195.8,7c17.6-0.2,35.3-0.8,52.8,1.9c-0.3-0.4-0.6-0.8-0.9-1.2c-0.7,18.9-1.5,37.8-1.3,56.8
			c0.1,9.5,0.4,18.9,1,28.3c0.6,9.2,1.5,18.5,1.3,27.8c-0.1,10.3-1.3,20.7-3.5,30.8c0.4-0.3,0.8-0.6,1.2-0.9
			c-15.2-2-30.5,0.1-45.7,1c-7.7,0.5-15.4,0.6-23.1,0.1c-7.7-0.4-15.5-1.2-23.2-1.6c-30.9-1.5-61.8,2.5-92.7,3.4
			c-17.3,0.5-34.6,0.1-51.9-1.1c0.4,0.4,0.8,0.8,1.2,1.2c-1-18.9-1.8-37.8-2.3-56.8C8.3,77.6,8.1,58.4,8.2,39.1
			C8.2,28.6,8.4,18,8.7,7.5C8.7,6,6.3,6,6.3,7.5L6.3,7.5z"/>
	</g>
</g>
</svg>
