# Blender v3.0.0 OBJ File: 'to_statue.blend'
# www.blender.org
mtllib to_statue.mtl
o Cube_Cube.001
v 1.164497 1.055365 1.635890
v 1.525176 1.416044 0.008412
v 1.164497 -1.173869 1.635890
v 1.525176 -1.534548 0.008412
v -1.064737 1.055365 1.635890
v -1.425416 1.416044 0.008412
v -1.064737 -1.173869 1.635890
v -1.425416 -1.534548 0.008412
vt 0.375000 0.000000
vt 0.375000 0.250000
vt 0.625000 0.250000
vt 0.625000 0.000000
vt 0.375000 0.500000
vt 0.625000 0.500000
vt 0.375000 0.750000
vt 0.625000 0.750000
vt 0.375000 1.000000
vt 0.625000 1.000000
vt 0.125000 0.500000
vt 0.125000 0.750000
vt 0.875000 0.750000
vt 0.875000 0.500000
vn 0.9763 0.0000 0.2164
vn 0.0000 -0.9763 0.2164
vn -0.9763 0.0000 0.2164
vn 0.0000 0.9763 0.2164
vn 0.0000 0.0000 1.0000
vn 0.0000 0.0000 -1.0000
usemtl None
s off
f 1/1/1 3/2/1 4/3/1 2/4/1
f 3/2/2 7/5/2 8/6/2 4/3/2
f 7/5/3 5/7/3 6/8/3 8/6/3
f 5/7/4 1/9/4 2/10/4 6/8/4
f 3/11/5 1/12/5 5/7/5 7/5/5
f 8/6/6 6/8/6 2/13/6 4/14/6
o Curve
v 1.104348 -0.327166 2.423883
v 0.954757 -0.327166 2.032658
v 0.351962 -0.327167 1.671642
v 0.152199 -0.327167 1.669020
v -0.067306 -0.327167 1.722451
v -0.275829 -0.327167 1.836587
v -0.463765 -0.327168 2.032663
v -0.562541 -0.327168 2.217598
v -0.617509 -0.327168 2.451539
v -0.618711 -0.327168 2.560668
v -0.618730 -0.327168 3.758211
v -1.232512 -0.327168 3.314696
v -1.426245 -0.327168 3.262661
v -1.584222 -0.327169 3.298997
v -1.690344 -0.327169 3.383507
v -1.784032 -0.327169 3.586370
v -1.665566 -0.327169 3.898159
v 0.290087 -0.327167 5.266603
v 0.439716 -0.327167 5.254513
v 0.562975 -0.327167 5.197833
v 0.688140 -0.327167 4.783860
v 0.620351 -0.327167 4.661239
v 0.108596 -0.327167 4.284246
v 0.109808 -0.327167 3.384927
v 0.278505 -0.327167 3.395348
v 0.682590 -0.327167 3.278331
v 0.954737 -0.327166 3.027987
v 1.053522 -0.327166 2.843059
v 1.106967 -0.327166 2.623604
v 0.432984 -0.327167 2.424696
v 0.461339 -0.327167 2.525589
v 0.310292 -0.327167 2.736210
v 0.116682 -0.327167 2.701723
v 0.032646 -0.327167 2.553375
v 0.145705 -0.327167 2.338935
v 0.222499 -0.327167 2.317536
v 0.379615 -0.327167 2.363651
v 1.104348 0.208666 2.423883
v 1.053534 0.208666 2.217591
v 0.766819 0.208666 1.836583
v 0.558295 0.208666 1.722448
v 0.351961 0.208666 1.671642
v -0.463765 0.208665 2.032663
v -0.618731 0.208665 3.758211
v -1.232512 0.208665 3.314696
v -1.326997 0.208664 3.275165
v -1.426245 0.208664 3.262661
v -1.584223 0.208664 3.298997
v -1.784033 0.208664 3.586370
v -1.758530 0.208664 3.770403
v -1.665567 0.208664 3.898159
v 0.108595 0.208666 4.284246
v 0.109808 0.208666 3.384927
v 0.278505 0.208666 3.395348
v 0.479237 0.208666 3.365139
v 0.682590 0.208666 3.278331
v 0.954737 0.208666 3.027987
v 1.053521 0.208666 2.843059
v 1.106966 0.208666 2.623604
v 0.436915 0.208666 2.630090
v 0.116682 0.208666 2.701723
v 0.039560 0.208666 2.465532
v 0.145704 0.208666 2.338935
v 0.222498 0.208666 2.317536
v 0.379614 0.208666 2.363651
v 1.053535 -0.327166 2.217591
v 0.954756 0.208666 2.032658
v 0.766820 -0.327167 1.836583
v 0.558295 -0.327167 1.722448
v 0.152199 0.208666 1.669020
v -0.067307 0.208666 1.722451
v -0.275830 0.208665 1.836587
v -0.562542 0.208665 2.217598
v -0.617510 0.208665 2.451539
v -1.326996 -0.327168 3.275165
v -1.690344 0.208664 3.383507
v -1.747516 0.208664 3.468253
v -1.747515 -0.327169 3.468253
v -1.758529 -0.327169 3.770403
v 0.156371 0.208666 5.215917
v 0.156371 -0.327167 5.215917
v 0.290087 0.208666 5.266603
v 0.439715 0.208666 5.254513
v 0.562975 0.208666 5.197833
v 0.666561 0.208666 5.073171
v 0.666562 -0.327167 5.073171
v 0.710029 0.208666 4.932355
v 0.710029 -0.327167 4.932355
v 0.688139 0.208666 4.783860
v 0.620351 0.208666 4.661239
v 0.479237 -0.327167 3.365139
v 0.815037 0.208666 3.181682
v 0.815038 -0.327167 3.181682
v 0.432984 0.208666 2.424696
v 0.461339 0.208666 2.525589
v 0.436916 -0.327167 2.630090
v 0.379676 0.208666 2.697092
v 0.379676 -0.327167 2.697092
v 0.310292 0.208666 2.736210
v 0.194286 0.208666 2.740020
v 0.194286 -0.327167 2.740020
v 0.054040 0.208666 2.630086
v 0.054040 -0.327167 2.630086
v 0.032646 0.208666 2.553375
v 0.039560 -0.327167 2.465532
v 0.078687 0.208666 2.396162
v 0.078688 -0.327167 2.396162
v 0.310268 0.208666 2.324517
v 0.310268 -0.327167 2.324517
vt 0.433650 0.000000
vt 0.468034 0.000000
vt 0.451687 0.000000
vt 0.416412 0.000000
vt 0.487519 0.000000
vt 0.505294 0.000000
vt 0.373370 0.000000
vt 0.523319 0.000000
vt 0.540235 0.000000
vt 0.553009 0.000000
vt 0.354304 0.000000
vt 0.206304 0.000000
vt 0.203438 0.000000
vt 0.589796 0.000000
vt 0.331930 0.000000
vt 0.317015 0.000000
vt 0.244493 0.000000
vt 0.304761 0.000000
vt 0.645679 0.000000
vt 0.619993 0.000000
vt 0.288413 0.000000
vt 0.668073 0.000000
vt 0.256853 0.000000
vt 0.268928 0.000000
vt 0.684687 0.000000
vt 0.698104 0.000000
vt 0.838546 0.000000
vt 0.708763 0.000000
vt 0.814739 0.000000
vt 0.720233 0.000000
vt 0.856321 0.000000
vt 0.798391 0.000000
vt 0.780355 0.000000
vt 0.875806 0.000000
vt 0.758356 0.000000
vt 0.892153 0.000000
vt 0.186246 0.000000
vt 0.189112 0.000000
vt 0.130763 0.000000
vt 0.910189 0.000000
vt 0.002499 0.000000
vt 0.736839 0.000000
vt 0.926537 0.000000
vt 0.995305 0.000000
vt 0.944573 0.000000
vt 0.118505 0.000000
vt 0.013300 0.000000
vt 0.978958 0.000000
vt 0.960934 0.000000
vt 0.107846 0.000000
vt 0.023959 0.000000
vt 0.094143 0.000000
vt 0.037662 0.000000
vt 0.082068 0.000000
vt 0.049737 0.000000
vt 0.070598 0.000000
vt 0.060538 0.000000
vt 0.433650 0.000000
vt 0.451687 0.000000
vt 0.468034 0.000000
vt 0.416412 0.000000
vt 0.487519 0.000000
vt 0.505294 0.000000
vt 0.373370 0.000000
vt 0.523319 0.000000
vt 0.540235 0.000000
vt 0.553009 0.000000
vt 0.354304 0.000000
vt 0.206304 0.000000
vt 0.203438 0.000000
vt 0.589796 0.000000
vt 0.331930 0.000000
vt 0.317015 0.000000
vt 0.244493 0.000000
vt 0.304761 0.000000
vt 0.623457 0.000000
vt 0.645679 0.000000
vt 0.288413 0.000000
vt 0.668073 0.000000
vt 0.256853 0.000000
vt 0.268928 0.000000
vt 0.684687 0.000000
vt 0.698104 0.000000
vt 0.838546 0.000000
vt 0.708763 0.000000
vt 0.814739 0.000000
vt 0.720233 0.000000
vt 0.856321 0.000000
vt 0.798391 0.000000
vt 0.780355 0.000000
vt 0.875806 0.000000
vt 0.758356 0.000000
vt 0.892153 0.000000
vt 0.130605 0.000000
vt 0.910189 0.000000
vt 0.002499 0.000000
vt 0.736839 0.000000
vt 0.926537 0.000000
vt 0.995305 0.000000
vt 0.944573 0.000000
vt 0.118505 0.000000
vt 0.016685 0.000000
vt 0.978958 0.000000
vt 0.960934 0.000000
vt 0.107846 0.000000
vt 0.013300 0.000000
vt 0.023959 0.000000
vt 0.094143 0.000000
vt 0.037662 0.000000
vt 0.082068 0.000000
vt 0.049737 0.000000
vt 0.070598 0.000000
vt 0.060538 0.000000
vt 0.003433 1.000000
vt 0.018274 1.000000
vt 0.013429 0.000000
vt 0.255906 1.000000
vt 0.259843 1.000000
vt 0.257874 0.000000
vt 0.828799 1.000000
vt 0.834646 1.000000
vt 0.836661 0.000000
vt 0.032920 1.000000
vt 0.032920 0.000000
vt 0.051748 1.000000
vt 0.051748 0.000000
vt 0.068340 1.000000
vt 0.068340 0.000000
vt 0.083181 1.000000
vt 0.083181 0.000000
vt 0.097002 1.000000
vt 0.097002 0.000000
vt 0.112763 1.000000
vt 0.112763 0.000000
vt 0.129354 1.000000
vt 0.129354 0.000000
vt 0.148183 1.000000
vt 0.148183 0.000000
vt 0.162828 1.000000
vt 0.162828 0.000000
vt 0.179671 1.000000
vt 0.179454 0.000000
vt 0.283465 0.000000
vt 0.279528 0.000000
vt 0.279528 1.000000
vt 0.283465 1.000000
vt 0.335938 1.000000
vt 0.335938 0.000000
vt 0.352920 1.000000
vt 0.352920 0.000000
vt 0.369512 1.000000
vt 0.369512 0.000000
vt 0.396285 1.000000
vt 0.396285 0.000000
vt 0.418746 1.000000
vt 0.418746 0.000000
vt 0.435584 1.000000
vt 0.435584 0.000000
vt 0.456077 1.000000
vt 0.456077 0.000000
vt 0.486820 1.000000
vt 0.486820 0.000000
vt 0.513017 1.000000
vt 0.513017 0.000000
vt 0.572157 1.000000
vt 0.572157 0.000000
vt 0.595842 1.000000
vt 0.595842 0.000000
vt 0.620625 1.000000
vt 0.620625 0.000000
vt 0.643086 1.000000
vt 0.643086 0.000000
vt 0.669859 1.000000
vt 0.669859 0.000000
vt 0.694282 1.000000
vt 0.694282 0.000000
vt 0.719048 1.000000
vt 0.719048 0.000000
vt 0.742292 1.000000
vt 0.742292 0.000000
vt 0.759842 1.000000
vt 0.759842 0.000000
vt 0.806770 1.000000
vt 0.806770 0.000000
vt 0.859972 0.000000
vt 0.859671 1.000000
vt 0.887173 1.000000
vt 0.887173 0.000000
vt 0.830709 0.000000
vt 0.826772 0.000000
vt 0.917943 1.000000
vt 0.917943 0.000000
vt 0.940770 1.000000
vt 0.940770 0.000000
vt 0.959206 1.000000
vt 0.959206 0.000000
vt 0.973852 1.000000
vt 0.973852 0.000000
vt 0.989612 1.000000
vt 0.989612 0.000000
vt 1.000000 1.000000
vt 1.000000 0.000000
vt 0.032883 0.000000
vt 0.032883 1.000000
vt 0.111106 1.000000
vt 0.111106 0.000000
vt 0.191081 1.000000
vt 0.191081 0.000000
vt 0.256651 1.000000
vt 0.256651 0.000000
vt 0.316081 1.000000
vt 0.316081 0.000000
vt 0.402630 1.000000
vt 0.402630 0.000000
vt 0.467250 1.000000
vt 0.467250 0.000000
vt 0.538086 1.000000
vt 0.538086 0.000000
vt 0.597515 1.000000
vt 0.597515 0.000000
vt 0.663083 1.000000
vt 0.663083 0.000000
vt 0.722515 1.000000
vt 0.722515 0.000000
vt 0.788084 1.000000
vt 0.788084 0.000000
vt 0.847564 1.000000
vt 0.847564 0.000000
vt 0.913086 1.000000
vt 0.913086 0.000000
vt 0.972515 1.000000
vt 0.972515 0.000000
vt 1.000000 1.000000
vt 1.000000 0.000000
vn 0.0000 -1.0000 -0.0000
vn -0.0000 1.0000 0.0000
vn 0.7251 0.6823 -0.0928
vn 0.7251 -0.6823 -0.0928
vn 0.6845 -0.6802 -0.2624
vn 0.6845 0.6802 -0.2624
vn -0.7248 -0.6832 -0.0880
vn -0.7085 -0.7056 -0.0036
vn -0.7261 0.6823 -0.0848
vn 0.2815 -0.9115 0.2998
vn 0.0320 -0.6841 0.7286
vn 0.0320 0.6841 0.7286
vn 0.5953 -0.6776 -0.4317
vn 0.5953 0.6776 -0.4317
vn 0.4490 -0.6744 -0.5861
vn 0.4490 0.6744 -0.5861
vn 0.2662 -0.6791 -0.6840
vn 0.2662 0.6791 -0.6840
vn 0.0928 -0.6823 -0.7251
vn 0.0928 0.6823 -0.7251
vn -0.0826 -0.6799 -0.7286
vn -0.0826 0.6799 -0.7286
vn -0.2654 -0.6788 -0.6846
vn -0.2654 0.6788 -0.6846
vn -0.4490 -0.6744 -0.5861
vn -0.4490 0.6744 -0.5861
vn -0.5953 -0.6776 -0.4317
vn -0.5953 0.6776 -0.4317
vn -0.6868 -0.6791 -0.2590
vn -0.6868 0.6791 -0.2590
vn -0.1177 0.9659 -0.2305
vn -0.1178 -0.9659 -0.2306
vn 0.3576 -0.6822 -0.6377
vn 0.3576 0.6822 -0.6377
vn 0.1896 -0.6779 -0.7103
vn 0.1895 0.6779 -0.7103
vn -0.0374 -0.6698 -0.7416
vn -0.0374 0.6698 -0.7416
vn -0.3261 -0.6605 -0.6763
vn -0.3261 0.6605 -0.6763
vn -0.5423 -0.6745 -0.5010
vn -0.5423 0.6745 -0.5010
vn -0.6649 -0.6756 -0.3185
vn -0.6649 0.6756 -0.3185
vn -0.7476 -0.6613 -0.0607
vn -0.7476 0.6613 -0.0607
vn -0.6998 -0.6562 0.2822
vn -0.6998 0.6562 0.2822
vn -0.5220 -0.6734 0.5235
vn -0.5220 0.6734 0.5235
vn -0.3484 -0.6786 0.6465
vn -0.3484 0.6786 0.6465
vn -0.1053 -0.6608 0.7431
vn -0.1053 0.6608 0.7431
vn 0.1878 -0.6699 0.7183
vn 0.1878 0.6699 0.7183
vn 0.4569 -0.6605 0.5958
vn 0.4569 0.6605 0.5958
vn 0.6562 -0.6656 0.3554
vn 0.6562 0.6656 0.3554
vn 0.7486 -0.6606 0.0574
vn 0.7486 0.6606 0.0574
vn 0.7041 -0.6691 -0.2378
vn 0.7041 0.6691 -0.2378
vn 0.5632 -0.6620 -0.4944
vn 0.5632 0.6620 -0.4944
vn 0.5056 -0.8242 -0.2551
vn 0.5056 0.8242 -0.2551
vn 0.2815 0.9115 0.2998
vn 0.2002 -0.6796 0.7056
vn 0.2002 0.6796 0.7056
vn 0.3612 -0.6825 0.6354
vn 0.3612 0.6825 0.6354
vn 0.4867 -0.6850 0.5420
vn 0.4867 0.6850 0.5420
vn 0.5989 -0.6804 0.4223
vn 0.5989 0.6804 0.4223
vn 0.6850 -0.6799 0.2616
vn 0.6850 0.6799 0.2616
vn 0.7286 -0.6799 0.0826
vn 0.7286 0.6799 0.0826
vn -0.5713 0.7602 0.3093
vn -0.5713 -0.7602 0.3093
vn -0.6406 -0.7677 0.0142
vn -0.6406 0.7677 0.0142
vn -0.5753 -0.7644 -0.2910
vn -0.5753 0.7644 -0.2910
vn -0.4213 -0.7485 -0.5120
vn -0.4213 0.7485 -0.5120
vn -0.1737 -0.7648 -0.6204
vn -0.1737 0.7648 -0.6204
vn 0.1357 -0.7661 -0.6282
vn 0.1357 0.7661 -0.6282
vn 0.4004 -0.7539 -0.5209
vn 0.4004 0.7539 -0.5209
vn 0.5713 -0.7605 -0.3086
vn 0.5713 0.7605 -0.3086
vn 0.6600 -0.7485 -0.0640
vn 0.6600 0.7485 -0.0640
vn 0.6227 -0.7590 0.1899
vn 0.6227 0.7591 0.1899
vn 0.5119 -0.7485 0.4215
vn 0.5119 0.7485 0.4215
vn 0.3059 -0.7590 0.5746
vn 0.3059 0.7590 0.5746
vn 0.0637 -0.7486 0.6599
vn 0.0637 0.7486 0.6599
vn -0.1903 -0.7590 0.6227
vn -0.1903 0.7590 0.6227
vn -0.4196 -0.7471 0.5156
vn -0.4196 0.7471 0.5156
usemtl SVGMat
s off
f 26/15/7 28/16/7 27/17/7
f 89/18/7 28/16/7 26/15/7
f 89/18/7 94/19/7 28/16/7
f 89/18/7 96/20/7 94/19/7
f 25/21/7 96/20/7 89/18/7
f 25/21/7 29/22/7 96/20/7
f 25/21/7 30/23/7 29/22/7
f 25/21/7 31/24/7 30/23/7
f 87/25/7 31/24/7 25/21/7
f 19/26/7 31/24/7 87/25/7
f 18/27/7 31/24/7 19/26/7
f 18/27/7 32/28/7 31/24/7
f 24/29/7 19/26/7 87/25/7
f 86/30/7 19/26/7 24/29/7
f 86/30/7 20/31/7 19/26/7
f 23/32/7 20/31/7 86/30/7
f 32/28/7 99/33/7 33/34/7
f 18/27/7 99/33/7 32/28/7
f 22/35/7 20/31/7 23/32/7
f 18/27/7 34/36/7 99/33/7
f 22/35/7 83/37/7 20/31/7
f 21/38/7 83/37/7 22/35/7
f 18/27/7 101/39/7 34/36/7
f 18/27/7 35/40/7 101/39/7
f 18/27/7 109/41/7 35/40/7
f 109/41/7 36/42/7 35/40/7
f 109/41/7 40/43/7 36/42/7
f 40/43/7 37/44/7 36/42/7
f 18/27/7 41/45/7 109/41/7
f 106/46/7 37/44/7 40/43/7
f 104/47/7 37/44/7 106/46/7
f 18/27/7 111/48/7 41/45/7
f 39/49/7 37/44/7 104/47/7
f 18/27/7 42/50/7 111/48/7
f 17/51/7 42/50/7 18/52/7
f 17/53/7 113/54/7 42/50/7
f 39/49/7 9/55/7 37/44/7
f 38/56/7 9/55/7 39/49/7
f 17/53/7 115/57/7 113/54/7
f 45/58/7 9/55/7 38/56/7
f 17/53/7 43/59/7 115/57/7
f 16/60/7 43/59/7 17/53/7
f 45/58/7 74/61/7 9/55/7
f 117/62/7 74/61/7 45/58/7
f 16/60/7 44/63/7 43/59/7
f 44/63/7 74/61/7 117/62/7
f 16/60/7 74/61/7 44/63/7
f 15/64/7 74/61/7 16/60/7
f 15/64/7 10/65/7 74/61/7
f 14/66/7 10/65/7 15/64/7
f 14/66/7 76/67/7 10/65/7
f 13/68/7 76/67/7 14/66/7
f 13/68/7 77/69/7 76/67/7
f 12/70/7 77/69/7 13/68/7
f 12/70/7 11/71/7 77/69/7
f 90/72/8 91/73/8 92/74/8
f 88/75/8 90/72/8 92/74/8
f 88/75/8 92/74/8 93/76/8
f 88/75/8 93/76/8 95/77/8
f 59/78/8 88/75/8 95/77/8
f 59/78/8 95/77/8 97/79/8
f 59/78/8 97/79/8 98/80/8
f 59/78/8 98/80/8 60/81/8
f 58/82/8 59/78/8 60/81/8
f 52/83/8 58/82/8 60/81/8
f 82/84/8 52/83/8 60/81/8
f 82/84/8 60/81/8 61/85/8
f 57/86/8 58/82/8 52/83/8
f 85/87/8 57/86/8 52/83/8
f 85/87/8 52/83/8 53/88/8
f 84/89/8 85/87/8 53/88/8
f 61/85/8 62/90/8 63/91/8
f 82/84/8 61/85/8 63/91/8
f 56/92/8 84/89/8 53/88/8
f 82/84/8 63/91/8 64/93/8
f 56/92/8 53/88/8 54/94/8
f 55/95/8 56/92/8 54/94/8
f 82/84/8 64/93/8 100/96/8
f 82/84/8 100/96/8 65/97/8
f 82/84/8 65/97/8 108/98/8
f 108/98/8 65/97/8 66/99/8
f 108/98/8 66/99/8 107/100/8
f 107/100/8 66/99/8 67/101/8
f 82/84/8 108/98/8 69/102/8
f 105/103/8 107/100/8 67/101/8
f 68/104/8 105/103/8 67/101/8
f 82/84/8 69/102/8 110/105/8
f 103/106/8 68/104/8 67/101/8
f 82/84/8 110/105/8 112/107/8
f 82/108/8 112/107/8 70/109/8
f 103/106/8 67/101/8 46/110/8
f 102/111/8 103/106/8 46/110/8
f 82/108/8 70/109/8 114/112/8
f 73/113/8 102/111/8 46/110/8
f 82/108/8 114/112/8 71/114/8
f 81/115/8 82/108/8 71/114/8
f 73/113/8 46/110/8 47/116/8
f 116/117/8 73/113/8 47/116/8
f 81/115/8 71/114/8 72/118/8
f 72/118/8 116/117/8 47/116/8
f 81/115/8 72/118/8 47/116/8
f 51/119/8 81/115/8 47/120/8
f 51/119/8 47/120/8 75/121/8
f 80/122/8 51/119/8 75/121/8
f 80/122/8 75/121/8 48/123/8
f 79/124/8 80/122/8 48/123/8
f 79/124/8 48/123/8 49/125/8
f 78/126/8 79/124/8 49/125/8
f 78/126/8 49/125/8 50/127/8
s 1
f 46/110/9 9/128/10 74/129/11 47/130/12
f 17/131/13 18/132/14 82/133/15
f 32/134/16 33/135/17 62/136/18
f 47/120/12 74/129/11 10/137/19 75/138/20
f 75/138/20 10/137/19 76/139/21 48/140/22
f 48/140/22 76/139/21 77/141/23 49/142/24
f 49/142/24 77/141/23 11/143/25 50/144/26
f 50/144/26 11/143/25 12/145/27 78/146/28
f 78/146/28 12/145/27 13/147/29 79/148/30
f 79/148/30 13/147/29 14/149/31 80/150/32
f 80/150/32 14/149/31 15/151/33 51/152/34
f 51/152/34 15/151/33 16/153/35 81/154/36
f 81/154/36 16/153/35 17/155/13 82/156/15
f 52/157/37 82/158/15 18/159/14 19/160/38
f 52/157/37 19/160/38 20/161/39 53/162/40
f 53/162/40 20/161/39 83/163/41 54/164/42
f 54/164/42 83/163/41 21/165/43 55/166/44
f 55/166/44 21/165/43 22/167/45 56/168/46
f 56/168/46 22/167/45 23/169/47 84/170/48
f 84/170/48 23/169/47 86/171/49 85/172/50
f 85/172/50 86/171/49 24/173/51 57/174/52
f 57/174/52 24/173/51 87/175/53 58/176/54
f 58/176/54 87/175/53 25/177/55 59/178/56
f 59/178/56 25/177/55 89/179/57 88/180/58
f 88/180/58 89/179/57 26/181/59 90/182/60
f 90/182/60 26/181/59 27/183/61 91/184/62
f 91/184/62 27/183/61 28/185/63 92/186/64
f 92/186/64 28/185/63 94/187/65 93/188/66
f 93/188/66 94/187/65 96/189/67 95/190/68
f 95/190/68 96/189/67 29/191/69 97/192/70
f 97/192/70 29/191/69 30/193/71 98/194/72
f 98/194/72 30/193/71 31/195/73 60/196/74
f 60/196/74 31/195/73 32/197/16 61/198/75
f 62/199/18 33/200/17 99/201/76 63/202/77
f 32/134/16 62/203/18 61/204/75
f 63/202/77 99/201/76 34/205/78 64/206/79
f 64/206/79 34/205/78 101/207/80 100/208/81
f 100/208/81 101/207/80 35/209/82 65/210/83
f 65/210/83 35/209/82 36/211/84 66/212/85
f 66/212/85 36/211/84 37/213/86 67/214/87
f 67/214/87 37/213/86 9/215/10 46/216/9
f 102/217/88 38/218/89 39/219/90 103/220/91
f 103/220/91 39/219/90 104/221/92 68/222/93
f 68/222/93 104/221/92 106/223/94 105/224/95
f 105/224/95 106/223/94 40/225/96 107/226/97
f 107/226/97 40/225/96 109/227/98 108/228/99
f 108/228/99 109/227/98 41/229/100 69/230/101
f 69/230/101 41/229/100 111/231/102 110/232/103
f 110/232/103 111/231/102 42/233/104 112/234/105
f 112/234/105 42/233/104 113/235/106 70/236/107
f 70/236/107 113/235/106 115/237/108 114/238/109
f 114/238/109 115/237/108 43/239/110 71/240/111
f 71/240/111 43/239/110 44/241/112 72/242/113
f 72/242/113 44/241/112 117/243/114 116/244/115
f 116/244/115 117/243/114 45/245/116 73/246/117
f 73/246/117 45/245/116 38/247/89 102/248/88
